<?xml version="1.0" encoding="utf-8"?>
<!-- Generator: Adobe Illustrator 27.9.0, SVG Export Plug-In . SVG Version: 6.00 Build 0)  -->
<svg version="1.1" id="Layer_1" xmlns="http://www.w3.org/2000/svg" xmlns:xlink="http://www.w3.org/1999/xlink" x="0px" y="0px"
	 viewBox="0 0 309.2 175.2" style="enable-background:new 0 0 309.2 175.2;" xml:space="preserve">
<style type="text/css">
	.st0{fill:#B3B2B2;}
	.st1{fill:#64666A;}
	.st2{fill:url(#SVGID_1_);}
	.st3{fill:url(#SVGID_00000003794891996952001930000009852384314872073129_);}
	.st4{fill:#5EB997;}
	.st5{fill:#F9DA04;}
	.st6{fill:url(#SVGID_00000066493274260030431890000011241229263001230993_);}
	.st7{fill:url(#SVGID_00000147941467862952824340000009462992422813679789_);}
	.st8{fill:url(#SVGID_00000119833825057790584220000014952065627461171096_);}
	.st9{fill:url(#SVGID_00000042014092306846218400000008837045009028853905_);}
	.st10{fill:url(#SVGID_00000141458002867677463470000018144570249087341231_);}
	.st11{fill:url(#SVGID_00000075155475039104412700000011866183070103087522_);}
	.st12{fill:url(#SVGID_00000072242626321807278760000009119292998002432410_);}
	.st13{fill:url(#SVGID_00000117669938466694974300000009465050007636596389_);}
	.st14{fill:url(#SVGID_00000164473607264440055120000003604546911056068029_);}
	.st15{fill:#39B9A7;}
	.st16{fill:url(#SVGID_00000059280883463681508650000001125076534483015552_);}
</style>
<g>
	<g>
		<path class="st0" d="M73.8,129.7v-1.8h13.1v1.8h-5.5v14.4h-2v-14.4H73.8z"/>
		<path class="st0" d="M102.6,136.8h-9.3v7.3h-2v-16.2h2v7h9.3v-7h2v16.2h-2V136.8z"/>
		<path class="st0" d="M110.9,127.9h11.4v1.9h-9.4v5.1h9v1.9h-9v5.5h9.8v1.9h-11.8V127.9z"/>
		<path class="st0" d="M133.9,138.3H130v5.8h-2v-16.2h7.4c3.7,0,5.5,2.5,5.5,5.2c0,2.5-1.3,4.7-4.7,5l5.3,6H139L133.9,138.3z
			 M138.7,133.2c0-1.6-1.1-3.4-3.5-3.4h-5.3v6.8h5.3C137.6,136.5,138.7,135,138.7,133.2z"/>
		<path class="st0" d="M154.1,127.9l7.3,16.2h-2.2l-1.6-3.6h-9.3l-1.6,3.6h-2.2l7.3-16.2L154.1,127.9z M153,130l-3.8,8.7h7.7
			L153,130z"/>
		<path class="st0" d="M167.9,144.1h-2v-16.2h7.4c7.5,0,7.5,10.9,0,11h-5.4V144.1z M173.3,129.8h-5.4v7.2h5.4
			C178,137,178,129.8,173.3,129.8z"/>
		<path class="st0" d="M183.7,127.9h11.4v1.9h-9.4v5.1h9v1.9h-9v5.5h9.8v1.9h-11.8V127.9z"/>
		<path class="st0" d="M213.8,128v9.7c0,4.5-3,6.8-6.6,6.8c-3.4,0-6.6-2.2-6.6-6.8V128h2v9.7c0,3.2,2.2,4.9,4.7,4.9s4.6-1.8,4.6-4.9
			V128H213.8L213.8,128z"/>
		<path class="st0" d="M218.1,129.7v-1.8h13.1v1.8h-5.5v14.4h-2v-14.4H218.1z"/>
		<path class="st0" d="M235.7,127.9h2v16.2h-2V127.9z"/>
		<path class="st0" d="M251.4,144.4c-5.7,0-8.4-4-8.4-8.3s2.8-8.4,8.4-8.4c2.2,0,4.3,0.8,5.9,2.4l-1.4,1.3c-1.2-1.2-2.9-1.8-4.5-1.8
			c-4.4,0-6.5,3.1-6.4,6.5c0,3.3,2.1,6.4,6.4,6.4c1.6,0,3.4-0.6,4.6-1.9l1.4,1.4C255.8,143.6,253.6,144.4,251.4,144.4z"/>
		<path class="st0" d="M267.8,129.4c-2.1,0-4.3,0.8-4.3,2.8c0,1.8,2,2.3,4.4,2.7c3.2,0.5,6.4,1.2,6.4,4.8s-3.5,4.8-6.6,4.8
			c-2.9,0-5.6-1-6.9-3.8l1.7-1c1,1.9,3.2,2.8,5.2,2.8s4.6-0.6,4.6-3c0-2-2.2-2.6-4.7-3c-3.1-0.5-6.2-1.2-6.2-4.5
			c0-3.4,3.4-4.5,6.2-4.5c2.4,0,4.7,0.5,6.1,2.9l-1.5,0.9C271.5,130.1,269.6,129.4,267.8,129.4z"/>
	</g>
</g>
<g>
	<path class="st1" d="M96.9,64.7c9.6,0,17.7,4.8,17.7,14.8c0,4.8-2.8,8.9-7.8,10.9c6.4,1.8,9.5,7.7,9.5,12.6
		c0,11.2-9.4,14.6-19.4,14.6H73.8V64.7H96.9z M80.4,87.4h16.8c6.3,0,10.9-2.3,10.9-7.8c0-5.9-4.8-8.9-11.2-8.9H80.4V87.4z
		 M80.4,111.3h16.5c5.5,0,12.8-1.4,12.8-8.6c-0.1-6.6-6.8-9.4-12.5-9.4H80.4V111.3z"/>
	<path class="st1" d="M158,111.6c-3.8,4.5-10.3,6.6-16.1,6.6c-11.5,0-19.6-7.6-19.6-19.5c0-11.2,8.1-19.3,19.3-19.3
		c11.4,0,20.1,7,18.6,21.9h-31.7c0.7,6.9,6.3,11.2,13.5,11.2c4.2,0,9.4-1.7,11.8-4.7L158,111.6L158,111.6z M154.4,96.2
		C154.1,89,149.1,85,141.8,85c-6.5,0-12.1,3.9-13.2,11.1L154.4,96.2L154.4,96.2z"/>
	<path class="st1" d="M199.5,117.7l-0.2-6.8c-2.9,5.1-8.6,7.5-13.7,7.5c-10.7,0-19.1-7.4-19.1-19.5s8.5-19.3,19.2-19.2
		c5.6,0,11.1,2.6,13.8,7.4l0.1-6.8h6v37.3h-6L199.5,117.7z M185.9,85.5c-7.4,0-13.4,5.3-13.4,13.6s6,13.7,13.4,13.7
		C203.9,112.8,203.9,85.5,185.9,85.5L185.9,85.5z"/>
	<path class="st1" d="M215.9,80.3h5.7l0.4,5.4c2.3-4.4,6.8-6.1,11-6.1c5.1,0,10.4,2.2,12.5,8.1c2.7-5.7,7.8-8.1,13.1-8.1
		c9.8,0,15.7,6.4,15.7,16.6v21.3h-6.2V96.3c0-6.1-3.5-10.8-9.7-10.8c-6.1,0-10.2,4.8-10.2,10.9v21.1H242V96.4
		c0-6.1-3.8-10.9-10-10.9c-6.1,0-10.1,4.8-10.1,10.9v21.1h-6.2L215.9,80.3L215.9,80.3z"/>
</g>
<g>
	
		<linearGradient id="SVGID_1_" gradientUnits="userSpaceOnUse" x1="134.613" y1="238.236" x2="70.7037" y2="191.2884" gradientTransform="matrix(0.9972 7.447916e-02 7.447916e-02 -0.9972 -45.7893 246.9531)">
		<stop  offset="4.040948e-04" style="stop-color:#FED900"/>
		<stop  offset="0.1249" style="stop-color:#D9CF24"/>
		<stop  offset="0.3835" style="stop-color:#93BE6D"/>
		<stop  offset="0.5036" style="stop-color:#77B88B"/>
		<stop  offset="0.6413" style="stop-color:#62B894"/>
		<stop  offset="0.8702" style="stop-color:#42B8A2"/>
		<stop  offset="1" style="stop-color:#39B9A7"/>
	</linearGradient>
	<path class="st2" d="M74.7,47.7l-2-14.4c-2.3,0.7-4.5,1.6-6.6,2.6L74.7,47.7z"/>
	
		<linearGradient id="SVGID_00000075854183494984184660000014322871849064330137_" gradientUnits="userSpaceOnUse" x1="135.5085" y1="237.0169" x2="71.5992" y2="190.0693" gradientTransform="matrix(0.9972 7.447916e-02 7.447916e-02 -0.9972 -45.7893 246.9531)">
		<stop  offset="4.040948e-04" style="stop-color:#FED900"/>
		<stop  offset="0.1249" style="stop-color:#D9CF24"/>
		<stop  offset="0.3835" style="stop-color:#93BE6D"/>
		<stop  offset="0.5036" style="stop-color:#77B88B"/>
		<stop  offset="0.6413" style="stop-color:#62B894"/>
		<stop  offset="0.8702" style="stop-color:#42B8A2"/>
		<stop  offset="1" style="stop-color:#39B9A7"/>
	</linearGradient>
	<path style="fill:url(#SVGID_00000075854183494984184660000014322871849064330137_);" d="M58.5,59.6l-8.7-11.7
		c-1.6,1.7-3.2,3.6-4.6,5.5L58.5,59.6z"/>
	<path class="st4" d="M68.4,56l-10-24.5c-3.7,2.3-7.2,4.9-10.5,7.6L68.4,56z"/>
	<path class="st5" d="M126.3,67.8l14.4-2.9c-0.9-2.2-1.9-4.4-3.1-6.4L126.3,67.8z"/>
	
		<linearGradient id="SVGID_00000179647290490321782550000017617682903280515468_" gradientUnits="userSpaceOnUse" x1="142.667" y1="227.272" x2="78.7577" y2="180.3244" gradientTransform="matrix(0.9972 7.447916e-02 7.447916e-02 -0.9972 -45.7893 246.9531)">
		<stop  offset="4.040948e-04" style="stop-color:#FED900"/>
		<stop  offset="0.1249" style="stop-color:#D9CF24"/>
		<stop  offset="0.3835" style="stop-color:#93BE6D"/>
		<stop  offset="0.5036" style="stop-color:#77B88B"/>
		<stop  offset="0.6413" style="stop-color:#62B894"/>
		<stop  offset="0.8702" style="stop-color:#42B8A2"/>
		<stop  offset="1" style="stop-color:#39B9A7"/>
	</linearGradient>
	<path style="fill:url(#SVGID_00000179647290490321782550000017617682903280515468_);" d="M50,77.9l-13.4-6.2
		c-0.6,2.3-1.1,4.7-1.4,7.1L50,77.9z"/>
	
		<linearGradient id="SVGID_00000136381887947050815160000006538313152053574024_" gradientUnits="userSpaceOnUse" x1="138.333" y1="233.172" x2="74.4236" y2="186.2244" gradientTransform="matrix(0.9972 7.447916e-02 7.447916e-02 -0.9972 -45.7893 246.9531)">
		<stop  offset="4.040948e-04" style="stop-color:#FED900"/>
		<stop  offset="0.1249" style="stop-color:#D9CF24"/>
		<stop  offset="0.3835" style="stop-color:#93BE6D"/>
		<stop  offset="0.5036" style="stop-color:#77B88B"/>
		<stop  offset="0.6413" style="stop-color:#62B894"/>
		<stop  offset="0.8702" style="stop-color:#42B8A2"/>
		<stop  offset="1" style="stop-color:#39B9A7"/>
	</linearGradient>
	<path style="fill:url(#SVGID_00000136381887947050815160000006538313152053574024_);" d="M53.1,68.2L41.7,59
		c-1.2,2.1-2.2,4.3-3.1,6.5L53.1,68.2z"/>
	
		<linearGradient id="SVGID_00000175324997763539255950000009310972300938016392_" gradientUnits="userSpaceOnUse" x1="150.879" y1="216.0931" x2="86.9697" y2="169.1455" gradientTransform="matrix(0.9972 7.447916e-02 7.447916e-02 -0.9972 -45.7893 246.9531)">
		<stop  offset="4.040948e-04" style="stop-color:#FED900"/>
		<stop  offset="0.1249" style="stop-color:#D9CF24"/>
		<stop  offset="0.3835" style="stop-color:#93BE6D"/>
		<stop  offset="0.5036" style="stop-color:#77B88B"/>
		<stop  offset="0.6413" style="stop-color:#62B894"/>
		<stop  offset="0.8702" style="stop-color:#42B8A2"/>
		<stop  offset="1" style="stop-color:#39B9A7"/>
	</linearGradient>
	<path style="fill:url(#SVGID_00000175324997763539255950000009310972300938016392_);" d="M113.4,52.4l11.1-9.4
		c-1.8-1.5-3.8-2.9-5.8-4.1L113.4,52.4z"/>
	
		<linearGradient id="SVGID_00000068662716252318860050000006124722363995492520_" gradientUnits="userSpaceOnUse" x1="136.4765" y1="235.6991" x2="72.5672" y2="188.7515" gradientTransform="matrix(0.9972 7.447916e-02 7.447916e-02 -0.9972 -45.7893 246.9531)">
		<stop  offset="4.040948e-04" style="stop-color:#FED900"/>
		<stop  offset="0.1249" style="stop-color:#D9CF24"/>
		<stop  offset="0.3835" style="stop-color:#93BE6D"/>
		<stop  offset="0.5036" style="stop-color:#77B88B"/>
		<stop  offset="0.6413" style="stop-color:#62B894"/>
		<stop  offset="0.8702" style="stop-color:#42B8A2"/>
		<stop  offset="1" style="stop-color:#39B9A7"/>
	</linearGradient>
	<path style="fill:url(#SVGID_00000068662716252318860050000006124722363995492520_);" d="M84.5,45.1l1.7-14.4
		c-2.4,0.2-4.7,0.5-7,0.9L84.5,45.1z"/>
	
		<linearGradient id="SVGID_00000145772088755076998090000008315064596818101891_" gradientUnits="userSpaceOnUse" x1="144.8685" y1="224.2751" x2="80.9592" y2="177.3275" gradientTransform="matrix(0.9972 7.447916e-02 7.447916e-02 -0.9972 -45.7893 246.9531)">
		<stop  offset="4.040948e-04" style="stop-color:#FED900"/>
		<stop  offset="0.1249" style="stop-color:#D9CF24"/>
		<stop  offset="0.3835" style="stop-color:#93BE6D"/>
		<stop  offset="0.5036" style="stop-color:#77B88B"/>
		<stop  offset="0.6413" style="stop-color:#62B894"/>
		<stop  offset="0.8702" style="stop-color:#42B8A2"/>
		<stop  offset="1" style="stop-color:#39B9A7"/>
	</linearGradient>
	<path style="fill:url(#SVGID_00000145772088755076998090000008315064596818101891_);" d="M106.2,33.2l-1.8,14.4l8.4-11.8
		C110.7,34.7,108.5,33.9,106.2,33.2z"/>
	
		<linearGradient id="SVGID_00000171721406351112680920000016499231657891136921_" gradientUnits="userSpaceOnUse" x1="148.263" y1="219.6543" x2="84.3537" y2="172.7066" gradientTransform="matrix(0.9972 7.447916e-02 7.447916e-02 -0.9972 -45.7893 246.9531)">
		<stop  offset="4.040948e-04" style="stop-color:#FED900"/>
		<stop  offset="0.1249" style="stop-color:#D9CF24"/>
		<stop  offset="0.3835" style="stop-color:#93BE6D"/>
		<stop  offset="0.5036" style="stop-color:#77B88B"/>
		<stop  offset="0.6413" style="stop-color:#62B894"/>
		<stop  offset="0.8702" style="stop-color:#42B8A2"/>
		<stop  offset="1" style="stop-color:#39B9A7"/>
	</linearGradient>
	<path style="fill:url(#SVGID_00000171721406351112680920000016499231657891136921_);" d="M49.4,88l-14.6-2.6c0,2.5,0.1,4.9,0.4,7.3
		L49.4,88z"/>
	
		<linearGradient id="SVGID_00000123409761214303668980000015742720933235042487_" gradientUnits="userSpaceOnUse" x1="158.0704" y1="206.3035" x2="94.1611" y2="159.3559" gradientTransform="matrix(0.9972 7.447916e-02 7.447916e-02 -0.9972 -45.7893 246.9531)">
		<stop  offset="4.040948e-04" style="stop-color:#FED900"/>
		<stop  offset="0.1249" style="stop-color:#D9CF24"/>
		<stop  offset="0.3835" style="stop-color:#93BE6D"/>
		<stop  offset="0.5036" style="stop-color:#77B88B"/>
		<stop  offset="0.6413" style="stop-color:#62B894"/>
		<stop  offset="0.8702" style="stop-color:#42B8A2"/>
		<stop  offset="1" style="stop-color:#39B9A7"/>
	</linearGradient>
	<path style="fill:url(#SVGID_00000123409761214303668980000015742720933235042487_);" d="M133.9,53c-1.4-1.9-2.9-3.7-4.6-5.5
		l-8.5,11.8L133.9,53z"/>
	
		<linearGradient id="SVGID_00000026155859517845000460000008073580143608449177_" gradientUnits="userSpaceOnUse" x1="154.8462" y1="210.6926" x2="90.9369" y2="163.745" gradientTransform="matrix(0.9972 7.447916e-02 7.447916e-02 -0.9972 -45.7893 246.9531)">
		<stop  offset="4.040948e-04" style="stop-color:#FED900"/>
		<stop  offset="0.1249" style="stop-color:#D9CF24"/>
		<stop  offset="0.3835" style="stop-color:#93BE6D"/>
		<stop  offset="0.5036" style="stop-color:#77B88B"/>
		<stop  offset="0.6413" style="stop-color:#62B894"/>
		<stop  offset="0.8702" style="stop-color:#42B8A2"/>
		<stop  offset="1" style="stop-color:#39B9A7"/>
	</linearGradient>
	<path style="fill:url(#SVGID_00000026155859517845000460000008073580143608449177_);" d="M51.4,98l-14.9,1.1c0.6,2.4,1.4,4.7,2.3,7
		L51.4,98z"/>
	
		<linearGradient id="SVGID_00000150799977628002550550000001687717150366060173_" gradientUnits="userSpaceOnUse" x1="139.9966" y1="230.9073" x2="76.0873" y2="183.9597" gradientTransform="matrix(0.9972 7.447916e-02 7.447916e-02 -0.9972 -45.7893 246.9531)">
		<stop  offset="4.040948e-04" style="stop-color:#FED900"/>
		<stop  offset="0.1249" style="stop-color:#D9CF24"/>
		<stop  offset="0.3835" style="stop-color:#93BE6D"/>
		<stop  offset="0.5036" style="stop-color:#77B88B"/>
		<stop  offset="0.6413" style="stop-color:#62B894"/>
		<stop  offset="0.8702" style="stop-color:#42B8A2"/>
		<stop  offset="1" style="stop-color:#39B9A7"/>
	</linearGradient>
	<path style="fill:url(#SVGID_00000150799977628002550550000001687717150366060173_);" d="M94.6,45.1l5.2-13.5
		c-1.2-0.2-2.3-0.4-3.5-0.5s-2.4-0.2-3.5-0.3L94.6,45.1z"/>
	<path class="st15" d="M62.2,114.9l-12.6,8.2c1.7,1.8,3.5,3.5,5.4,5L62.2,114.9z"/>
	
		<linearGradient id="SVGID_00000037671445034401286430000003101960850663925428_" gradientUnits="userSpaceOnUse" x1="162.9068" y1="199.7198" x2="98.9975" y2="152.7722" gradientTransform="matrix(0.9972 7.447916e-02 7.447916e-02 -0.9972 -45.7893 246.9531)">
		<stop  offset="4.040948e-04" style="stop-color:#FED900"/>
		<stop  offset="0.1249" style="stop-color:#D9CF24"/>
		<stop  offset="0.3835" style="stop-color:#93BE6D"/>
		<stop  offset="0.5036" style="stop-color:#77B88B"/>
		<stop  offset="0.6413" style="stop-color:#62B894"/>
		<stop  offset="0.8702" style="stop-color:#42B8A2"/>
		<stop  offset="1" style="stop-color:#39B9A7"/>
	</linearGradient>
	<path style="fill:url(#SVGID_00000037671445034401286430000003101960850663925428_);" d="M55.7,107.1l-14.2,4.8
		c1.2,2.2,2.5,4.2,4,6.2L55.7,107.1z"/>
</g>
</svg>
