<?xml version="1.0" encoding="UTF-8"?>
<svg width="309px" height="87px" viewBox="0 0 309 87" version="1.1" xmlns="http://www.w3.org/2000/svg" xmlns:xlink="http://www.w3.org/1999/xlink">
    <title>logo</title>
    <defs>
        <polygon id="path-1" points="0 0 62.6644738 0 62.6644738 87 0 87"></polygon>
    </defs>
    <g id="Symbols" stroke="none" stroke-width="1" fill="none" fill-rule="evenodd">
        <g id="header/header-block-v2" transform="translate(-221, -84)">
            <g id="Group-66" transform="translate(221, 84)">
                <path d="M61.4153568,35.5546216 C60.7719939,25.5488396 59.3096237,15.484831 52.6405352,7.93717468 C48.8967874,4.25048643 43.10112,1.94322987 38.9518695,1.67630763 C34.4781369,1.38837578 23.9758779,0.798705752 17.482634,3.31465788 C4.43753122,8.28813539 2.15575352,22.7987803 1.21991658,35.086007 C0.576553699,46.8471928 1.33714626,59.0757926 4.67099032,69.9003495 C6.83573839,77.0970451 13.3293824,83.7092731 20.875493,84.879609 C27.3109223,85.8736642 35.2667365,85.7572109 41.7015657,84.9960623 C49.7744096,84.2355141 56.5605277,76.5119772 58.4904163,69.0225476 C61.2987273,58.373471 62.1181347,46.7301392 61.4153568,35.5546216" id="Fill-1" fill="#FFFFFF"></path>
                <g id="Group-5">
                    <mask id="mask-2" fill="white">
                        <use xlink:href="#path-1"></use>
                    </mask>
                    <g id="Clip-4"></g>
                    <path d="M60.1824847,49.1352606 C59.0940091,62.4371519 58.1871795,79.245649 43.2563993,83.5990426 C37.0296228,85.2918178 31.2867689,84.5058579 24.8191314,84.5058579 C18.1694478,84.2037195 11.8222409,80.7571412 8.37636845,74.8318278 L8.19532261,74.5296895 C3.17745219,65.1577978 2.81496042,53.9722756 2.27122275,42.9680364 C2.15019211,38.1310214 2.69392977,33.0518955 3.17745219,28.0944253 L3.24967048,27.8723236 C4.21651526,20.0121242 6.56290932,12.252971 12.9703315,6.93233453 C18.1086325,3.06256244 24.6088782,2.02448708 31.1827425,2.10012171 C39.7969235,1.79778326 48.334485,3.78829478 53.5932164,11.2251003 L55.8907981,14.9135894 C60.1824847,25.2525239 60.7268225,37.2842336 60.1824847,49.1352606 M53.3511551,6.75105152 C49.4825757,2.94150701 43.4936594,0.557215166 39.2061739,0.281488903 C34.5832035,-0.0160473486 23.7304558,-0.625526448 17.020757,1.97426408 C3.54034407,7.11361755 1.18254712,22.1082841 0.215702339,34.8054985 C-0.449065967,46.9588639 0.336732981,59.5952505 3.7818052,70.7807727 C6.0185715,78.2175783 12.7288704,85.0503072 20.5266446,86.259661 C27.1769284,87.2869314 35.3978097,87.1664762 42.0472932,86.3801161 C50.3894053,85.5941562 57.4019807,77.6129014 59.3960856,69.8737574 C62.2982203,58.8695182 63.1448347,46.8378085 62.4186508,35.2897203 C61.7538825,24.9501855 60.2426999,14.5504231 53.3511551,6.75105152" id="Fill-3" fill="#003366" mask="url(#mask-2)"></path>
                </g>
                <path d="M55.6038454,34.3100917 C58.0820729,38.3611468 58.2037037,43.8630663 56.2686138,48.1562322 C55.2413537,50.1513459 53.548325,52.2068872 51.6746507,53.3558133 C53.0654028,58.8577328 50.7076058,64.4204801 46.1136427,67.5645199 C42.425709,70.1040828 36.8040857,69.6204614 33.2371827,67.1413261 L33.2371827,65.9319723 C36.3807786,68.3504798 41.6401101,68.8949291 45.1459977,66.8389876 C49.6797456,64.2391971 51.2519436,59.1600712 50.6473906,54.2026011 C50.4973526,53.5571055 50.2824982,52.9130105 50.2824982,52.9130105 C50.2824982,52.9130105 52.2163878,51.7810922 52.943772,50.8770782 C55.9663372,48.0351768 56.8129516,43.8630663 56.2686138,39.872839 C55.6038454,36.0028668 52.8233415,32.0728672 49.0753926,30.6216026 C47.5640099,30.0777535 45.7505508,30.0169257 44.1183376,30.0169257 C43.816061,25.4220215 40.7934958,20.8271174 36.3199632,19.3756527 C31.3032931,17.7437054 25.2581626,18.7107482 21.6914595,22.7614032 C19.9382157,24.8173446 18.7291095,27.2358521 18.5478637,30.0777535 C16.7946198,30.4409198 14.6186689,30.6216026 13.1675015,31.5284178 C8.99684554,33.2820209 6.03469558,37.3332761 6.15572623,41.8077251 C6.15572623,46.3424016 8.51292302,50.3928565 12.3819026,52.811364 C11.2938271,57.4070685 12.2006567,62.2440835 15.5252984,65.5085784 C18.3058024,68.1089692 22.8401504,68.8341013 26.2252074,67.4434645 L28.6432196,66.2951386 L28.5127866,67.4440647 C28.5127866,67.4440647 26.7201327,68.4213122 25.4388083,68.8949291 C21.6306441,70.043255 17.2179269,68.8341013 14.3766076,65.9319723 C11.1727964,62.5462219 10.2661669,58.0115453 10.9307352,53.2955857 C6.45780271,50.1513459 4.52331293,44.9513646 5.18808124,39.5096727 C5.73241905,35.0960516 9.6013986,31.0455967 13.7118393,29.8964705 L17.0968963,29.1099103 C18.0035258,24.0313847 22.3562279,19.0130867 27.4341135,17.803933 C29.2477726,17.2594837 31.0612318,17.1384282 33.1167522,17.3203115 L33.3582133,17.3203115 C37.5896846,17.62265 42.3046784,20.4037235 44.1183376,24.7571171 C44.6022601,26.0867259 45.1459977,27.3569076 45.2068131,28.8683997 C49.4984997,28.7473443 53.4278945,30.6216026 55.6038454,34.3100917 M42.425709,5.04589067 C39.8264509,4.13887532 33.7213052,3.9575923 33.479244,3.9575923 C24.1094717,3.41394335 13.8930852,4.86460765 9.05706078,13.9339608 C3.6166834,24.2728953 3.19337622,37.1519931 3.79772923,49.1837027 C5.12786599,61.2762403 5.67200376,75.6668302 18.1245565,81.3500327 C19.3336626,81.8334541 20.6635993,82.3779034 21.9329207,82.3176758 C27.6155594,77.0572669 29.912541,69.499606 30.516894,61.8809172 C27.7966052,64.9039015 23.9884411,65.9319723 20.0592463,64.7228186 C17.7620647,64.0579141 15.5252984,61.760462 14.86013,59.4624097 C14.1953617,57.286013 14.4976382,54.5651671 15.7065443,52.6909088 C16.0912417,51.9451673 16.6451819,51.2390439 16.9758657,50.7560228 C16.9758657,50.7560228 15.6879396,50.634367 14.6788841,50.3928565 C13.0158631,49.994474 10.2661669,47.249417 9.6013986,44.891137 C8.51292302,41.8077251 9.23830667,38.2400913 11.3540423,35.8215838 C13.6510239,32.5570889 17.7620647,32.9196549 21.3283676,33.4641043 C20.78463,28.9894552 22.4164431,24.8173446 26.2252074,22.4590647 C29.3079879,20.8271174 33.8417357,20.8271174 36.8040857,22.640948 C40.3099734,25.1196831 42.0628171,29.0496828 41.4582641,33.4641043 L44.5416447,33.0401101 C47.5031945,32.6775441 50.345114,34.0685811 52.0977578,36.5473162 C54.0926628,39.1471067 54.0926628,42.8351956 52.8835567,45.8581799 C51.6746507,48.7000813 48.7123007,50.6951949 45.8715814,50.8770782 C47.9873171,52.9324194 48.4100241,56.5000531 47.7452558,59.2208991 C46.9596569,62.3043111 43.9979071,64.7228186 40.9753418,65.0857848 C37.5288692,65.4483508 34.4462888,64.4204801 32.2099226,61.6996342 C31.7862153,69.318323 30.0335716,76.8153561 25.8019002,82.9825803 C31.5447542,82.8615249 38.0732071,83.9498232 43.6956305,81.713199 C52.2790037,78.7502422 56.087968,69.8017444 57.4173046,61.6996342 C58.3241342,53.4768687 59.0497179,45.1934755 58.6866259,36.7285992 C57.9014271,24.2728953 55.7856915,9.58056724 42.425709,5.04589067" id="Fill-6" fill="#003366"></path>
                <path d="M21.3283876,58.2530959 C19.6961744,58.1326407 18.1245765,57.8905299 17.0367011,56.5603207 C17.0969163,57.10457 17.2781622,57.648419 17.3991928,58.1928683 C19.0314061,61.3371082 22.8401704,62.2439234 26.0433814,61.941585 C28.0989018,61.6996742 30.5771292,60.9739419 31.1816823,58.7373176 C31.4839588,59.4624497 31.8470507,60.1277544 32.5724344,60.6716034 C35.3529383,62.6673173 39.7054403,62.1830956 42.6069749,60.7926588 C44.1183576,59.8856435 45.5693249,58.3741513 45.4482943,56.5603207 C44.8437412,57.1647975 44.0579423,57.648419 43.211528,57.8905299 C40.1889627,58.4349792 36.8039057,58.4349792 33.6605099,58.1928683 C34.8086005,57.7694744 36.3807986,56.923487 37.5288892,55.8345884 C39.4033638,53.9605302 40.6730853,51.4817951 40.0077168,48.7001213 C38.1942577,51.4817951 34.6279548,52.3277825 32.8144957,55.2907393 C32.8144957,55.1696839 32.8977167,54.8833528 32.9349262,54.6860624 C33.901971,50.4537243 33.7213253,45.1933154 29.9123609,42.7145803 C29.9123609,46.8862907 27.9176559,51.0584012 29.5498691,55.1696839 C27.73641,52.1464995 24.169707,51.5420227 22.4772785,48.7001213 C22.2958326,49.4860812 22.175002,50.3326689 22.3562479,51.0584012 C22.7185396,54.2628687 25.6808896,57.10457 28.6432396,58.1928683 C26.0433814,58.4349792 23.8674305,58.3139238 21.3283876,58.2530959" id="Fill-8" fill="#003366"></path>
                <path d="M56.5625482,83.5996029 L56.5625482,82.5887399 L57.2355186,82.5887399 C57.5802058,82.5887399 57.9468987,82.6637743 57.9468987,83.0681595 C57.9468987,83.5695891 57.5726039,83.5996029 57.1534978,83.5996029 L56.5625482,83.5996029 Z M58.4634294,83.097773 C58.4634294,82.4540783 58.0815327,82.169548 57.3111377,82.169548 L56.0678229,82.169548 L56.0678229,85.4336427 L56.5625482,85.4336427 L56.5625482,84.0187948 L57.1310921,84.0187948 L57.99171,85.4336427 L58.5460504,85.4336427 L57.6174152,83.9963846 C58.0961364,83.936157 58.4634294,83.6816404 58.4634294,83.097773 L58.4634294,83.097773 Z" id="Fill-10" fill="#003366"></path>
                <path d="M57.1611197,86.1598553 C55.8659918,86.1598553 54.8553359,85.1565958 54.8553359,83.7945721 C54.8553359,82.4541583 55.8659918,81.4432954 57.1611197,81.4432954 C58.4410438,81.4432954 59.4516996,82.4541583 59.4516996,83.7945721 C59.4516996,85.1565958 58.4410438,86.1598553 57.1611197,86.1598553 M57.1611197,80.9720796 C55.6039255,80.9720796 54.286792,82.169628 54.286792,83.7945721 C54.286792,85.4335227 55.6039255,86.6316713 57.1611197,86.6316713 C58.7031101,86.6316713 60.0200435,85.4335227 60.0200435,83.7945721 C60.0200435,82.169628 58.7031101,80.9720796 57.1611197,80.9720796" id="Fill-12" fill="#003366"></path>
                <path d="M70.4974162,73.663993 L70.7892901,73.663993 C71.0351523,73.663993 71.231202,73.7064125 71.3758386,73.7920517 C71.5204752,73.8764903 71.6168996,73.9763361 71.6641116,74.0903883 C71.7117236,74.2018393 71.7357297,74.4865697 71.7357297,74.9399773 L71.7357297,80.6828072 C71.7357297,81.1274108 71.7119237,81.4025367 71.6645117,81.5075849 C71.6036963,81.6552525 71.5168743,81.7615011 71.405246,81.8217287 C71.2494066,81.9137709 71.0439546,81.9587915 70.7892901,81.9587915 L70.4974162,81.9587915 L70.4974162,82.1836945 L75.0757753,82.1836945 L75.0757753,81.9587915 L74.7859019,81.9587915 C74.5402397,81.9587915 74.3455905,81.916172 74.201754,81.8305327 C74.0577176,81.7466943 73.9608931,81.6470487 73.9112805,81.5329965 C73.862068,81.4201448 73.8372618,81.1362148 73.8372618,80.6828072 L73.8372618,78.0173866 L74.1001283,78.0173866 C74.5580442,78.0173866 74.9683481,78.1502474 75.3302398,78.4147686 C75.6921314,78.6816908 75.9137875,79.2307422 75.9952081,80.0627232 L76.2206652,80.0627232 L76.2206652,75.6709121 L75.9952081,75.6709121 C75.943595,76.1397267 75.8331671,76.5134979 75.6643243,76.7868231 C75.4950815,77.0633497 75.2880291,77.2574386 75.0441673,77.3744922 C74.8001055,77.4895449 74.4856259,77.5485719 74.1001283,77.5485719 L73.8372618,77.5485719 L73.8372618,73.9451218 L74.6628708,73.9451218 C75.359047,73.9451218 75.8357677,73.9769363 76.0940331,74.0413658 C76.5619516,74.1588196 76.9196422,74.3577107 77.1671048,74.6418408 C77.4137673,74.9263711 77.5676062,75.3633712 77.6274214,75.9544419 L77.8900879,75.9544419 L77.8900879,73.43909 L70.4974162,73.43909 L70.4974162,73.663993 Z" id="Fill-14" fill="#003366"></path>
                <path d="M88.9804757,81.1303121 C88.4887512,81.5074848 87.8349857,81.6959711 87.018579,81.6959711 L86.4966469,81.6959711 C86.2475838,81.6959711 86.0669381,81.6623557 85.9555098,81.5927238 C85.8440816,81.5240924 85.7676623,81.4356519 85.7272521,81.3276024 C85.6858416,81.2205534 85.6654364,80.9266188 85.6654364,80.4447982 L85.6654364,77.9814701 C86.0873432,77.9814701 86.4084245,78.0350947 86.6298806,78.1443447 C86.8511366,78.2535947 87.0453858,78.4666923 87.2124281,78.7850381 C87.3800705,79.101383 87.4892982,79.5095699 87.5419115,80.0071978 L87.7669685,80.0071978 L87.7669685,75.428301 L87.5419115,75.428301 C87.4724939,76.1066116 87.3116532,76.6204469 87.0597894,76.9688064 C86.8077256,77.3177662 86.4016228,77.4924462 85.841481,77.4924462 L85.6654364,77.4924462 L85.6654364,73.9450217 L86.5660644,73.9450217 C87.232033,73.9450217 87.6853478,73.9840396 87.9274091,74.0602745 C88.341714,74.1877329 88.6625952,74.389025 88.8902529,74.6601492 C89.1169102,74.9334744 89.2927548,75.3834804 89.4179865,76.0099673 L89.6434436,76.0099673 L89.6434436,73.43899 L82.3259909,73.43899 L82.3259909,73.6640931 L82.6172647,73.6640931 C82.9027369,73.6640931 83.1275939,73.7249209 83.2914354,73.8469768 C83.4082649,73.9296147 83.4880851,74.0472685 83.5314961,74.1995383 C83.5529016,74.2917805 83.5639043,74.5384935 83.5639043,74.9398773 L83.5639043,80.6827071 C83.5639043,81.1273107 83.5402984,81.4024367 83.4924863,81.5074848 C83.432271,81.6551524 83.3456491,81.7616012 83.2330206,81.8218288 C83.0773812,81.9138709 82.8717291,81.9586914 82.6172647,81.9586914 L82.3259909,81.9586914 L82.3259909,82.1835944 L89.8881055,82.1835944 L90.2816051,79.4033212 L90.0405441,79.4033212 C89.8254896,80.1772757 89.4726003,80.7529393 88.9804757,81.1303121" id="Fill-16" fill="#003366"></path>
                <path d="M100.523598,80.9602942 C100.146303,81.4503186 99.6005645,81.6960311 98.8859836,81.6960311 C98.6675283,81.6960311 98.500486,81.663016 98.3850567,81.5991868 C98.3040362,81.555967 98.2456214,81.4939386 98.2116128,81.4131016 C98.1774042,81.3322646 98.1608,81.1095626 98.1608,80.7481971 L98.1608,73.9268734 C98.8753809,73.9214709 99.3867103,73.9863006 99.6945883,74.1197617 C100.131699,74.3094486 100.488989,74.6660119 100.76746,75.1902519 C101.118149,75.8611592 101.293993,76.756169 101.293993,77.8792833 C101.293993,79.2721212 101.037328,80.2989914 100.523598,80.9602942 M101.249782,73.8636445 C100.614021,73.5813152 99.7748086,73.43905 98.7305442,73.43905 L94.8203542,73.43905 L94.8203542,73.663953 L95.1124282,73.663953 C95.3584905,73.663953 95.55394,73.7065725 95.6991767,73.7922117 C95.8438134,73.8764503 95.9396376,73.976296 95.9872497,74.0903483 C96.0346617,74.2017993 96.0586678,74.4865297 96.0586678,74.9399373 L96.0586678,80.6827671 C96.0586678,81.1397764 96.0390628,81.4155027 96.0006531,81.5075448 C95.9352365,81.6470087 95.8348111,81.7562587 95.6991767,81.8382963 C95.5631423,81.918533 95.3670927,81.9587515 95.1124282,81.9587515 L94.8203542,81.9587515 L94.8203542,82.1836544 L98.7305442,82.1836544 C99.2938868,82.1836544 99.7059912,82.1582428 99.9678575,82.1070194 C100.560207,81.9959685 101.061734,81.8370957 101.472038,81.6328022 C101.881942,81.4285086 102.243834,81.158585 102.557713,80.8196298 C102.870992,80.4820752 103.127057,80.05568 103.324507,79.536042 C103.521957,79.0188052 103.620582,78.4519456 103.620582,77.8378644 C103.620582,76.9470564 103.419731,76.1486908 103.01803,75.443568 C102.616728,74.7392454 102.027579,74.212004 101.249782,73.8636445" id="Fill-18" fill="#003366"></path>
                <path d="M114.886755,81.1303121 C114.39503,81.5074848 113.740865,81.6959711 112.924458,81.6959711 L112.402726,81.6959711 C112.154063,81.6959711 111.973217,81.6623557 111.861989,81.5927238 C111.750361,81.5240924 111.673541,81.4356519 111.633131,81.3276024 C111.59212,81.2205534 111.571715,80.9266188 111.571715,80.4447982 L111.571715,77.9814701 C111.993222,77.9814701 112.314703,78.0350947 112.535759,78.1443447 C112.757416,78.2535947 112.951865,78.4666923 113.118707,78.7850381 C113.286149,79.101383 113.395977,79.5095699 113.44839,80.0071978 L113.673047,80.0071978 L113.673047,75.428301 L113.44839,75.428301 C113.378573,76.1066116 113.218132,76.6204469 112.965868,76.9688064 C112.714405,77.3177662 112.307902,77.4924462 111.74756,77.4924462 L111.571715,77.4924462 L111.571715,73.9450217 L112.472343,73.9450217 C113.137912,73.9450217 113.591227,73.9840396 113.833888,74.0602745 C114.248593,74.1877329 114.569474,74.389025 114.796132,74.6601492 C115.023189,74.9334744 115.199034,75.3834804 115.324866,76.0099673 L115.549522,76.0099673 L115.549522,73.43899 L108.23227,73.43899 L108.23227,73.6640931 L108.524144,73.6640931 C108.808416,73.6640931 109.033873,73.7249209 109.197714,73.8469768 C109.314544,73.9296147 109.393964,74.0472685 109.437575,74.1995383 C109.45918,74.2917805 109.470183,74.5384935 109.470183,74.9398773 L109.470183,80.6827071 C109.470183,81.1273107 109.446777,81.4024367 109.399365,81.5074848 C109.33855,81.6551524 109.251728,81.7616012 109.1395,81.8218288 C108.98406,81.9138709 108.778808,81.9586914 108.524144,81.9586914 L108.23227,81.9586914 L108.23227,82.1835944 L115.794384,82.1835944 L116.187684,79.4033212 L115.946623,79.4033212 C115.732169,80.1772757 115.378479,80.7529393 114.886755,81.1303121" id="Fill-20" fill="#003366"></path>
                <path d="M126.476269,76.9971194 C126.306426,77.2834505 126.072967,77.4807408 125.776492,77.5911914 C125.479416,77.6998412 125.031903,77.7558668 124.434752,77.7558668 L124.066859,77.7558668 L124.066859,73.9267133 L124.757234,73.9267133 C125.449409,73.9267133 125.951136,74.0861864 126.262815,74.4043321 C126.575094,74.720877 126.730933,75.2133025 126.730933,75.8800078 C126.730933,76.3394182 126.645912,76.7119888 126.476269,76.9971194 M129.00871,81.0157596 L126.911579,78.0564045 C127.444114,77.9211425 127.859219,77.7210509 128.155094,77.4541286 C128.619411,77.0325356 128.85147,76.4980908 128.85147,75.8533956 C128.85147,75.3237531 128.695831,74.8625419 128.385952,74.4681613 C128.075874,74.074381 127.674972,73.8044574 127.183448,73.6585906 C126.692324,73.5105227 125.915727,73.43909 124.855659,73.43909 L120.783027,73.43909 L120.783027,73.663993 C121.191331,73.663993 121.470401,73.7006098 121.619639,73.7726428 C121.768877,73.8470769 121.873103,73.9439212 121.932118,74.0661772 C121.991733,74.1894336 122.021941,74.4865697 122.021941,74.958786 L122.021941,80.6637985 C122.021941,81.1362148 121.991733,81.4325505 121.932118,81.5536059 C121.873103,81.6730606 121.769877,81.7715057 121.62284,81.8471403 C121.475203,81.9209742 121.195732,81.9587915 120.783027,81.9587915 L120.783027,82.1836945 L125.305572,82.1836945 L125.305572,81.9587915 C124.896469,81.9587915 124.617598,81.922775 124.468561,81.8501417 C124.318923,81.7757076 124.214696,81.6788633 124.155681,81.556007 C124.096266,81.433751 124.066859,81.1362148 124.066859,80.6637985 L124.066859,78.2052726 L124.640604,78.2052726 L127.459518,82.1836945 L130.221017,82.1836945 L130.221017,81.940383 C129.986358,81.9267768 129.780305,81.8553441 129.60206,81.7230835 C129.485231,81.6304411 129.287181,81.3937327 129.00871,81.0157596" id="Fill-22" fill="#003366"></path>
                <path d="M136.497146,79.2196371 L137.849888,76.2024555 L139.16142,79.2196371 L136.497146,79.2196371 Z M141.895713,80.424789 L138.744515,73.2507038 L138.622084,73.2507038 L135.491491,80.2317006 C135.194616,80.9054091 134.945553,81.3488121 134.743102,81.5649111 C134.541051,81.7792092 134.282785,81.9102693 133.969106,81.9586914 L133.969106,82.1835944 L136.877642,82.1835944 L136.877642,81.9586914 C136.422527,81.9232752 136.136255,81.8712514 136.019625,81.8022198 C135.821775,81.684766 135.72355,81.5010819 135.72355,81.2531683 C135.72355,81.0664829 135.783765,80.8285739 135.904196,80.5398417 L136.286493,79.6878515 L139.365672,79.6878515 L139.838192,80.7755496 C139.958222,81.0652823 140.022839,81.2289573 140.031841,81.2689756 C140.057447,81.3530141 140.070251,81.4338511 140.070251,81.5118868 C140.070251,81.6435471 140.022839,81.743793 139.928415,81.8152257 C139.79038,81.9102693 139.552119,81.9586914 139.212433,81.9586914 L139.038189,81.9586914 L139.038189,82.1835944 L143.256857,82.1835944 L143.256857,81.9586914 C142.98999,81.9368814 142.783137,81.8596461 142.637501,81.7243841 C142.444452,81.5465027 142.196589,81.1125039 141.895713,80.424789 L141.895713,80.424789 Z" id="Fill-24" fill="#003366"></path>
                <path d="M154.639339,80.665039 C154.414682,81.0216023 154.148215,81.2831221 153.838536,81.4485978 C153.529858,81.6144738 153.143961,81.6961112 152.680843,81.6961112 L151.953659,81.6961112 C151.542155,81.6961112 151.282489,81.6765022 151.175662,81.6374843 C151.025624,81.577857 150.924399,81.4870154 150.872986,81.3641592 C150.820972,81.2419032 150.795566,80.9573729 150.795566,80.5109685 L150.795566,74.9400174 C150.795566,74.496014 150.819972,74.2196875 150.867384,74.1156399 C150.9318,73.9657712 151.020623,73.8617236 151.132451,73.8008957 C151.28709,73.7094538 151.492542,73.664033 151.747007,73.664033 L152.128303,73.664033 L152.128303,73.4391301 L147.45552,73.4391301 L147.45552,73.664033 L147.747794,73.664033 C147.994057,73.664033 148.189106,73.7064525 148.333943,73.7920917 C148.478979,73.8765304 148.575204,73.9763761 148.622016,74.0904283 C148.670228,74.2018793 148.694034,74.4864096 148.694034,74.9400174 L148.694034,80.6828472 C148.694034,81.1274508 148.670828,81.4025768 148.623016,81.5076249 C148.562401,81.6552925 148.476179,81.7615411 148.36355,81.8217687 C148.207711,81.9138109 148.002459,81.9586314 147.747794,81.9586314 L147.45552,81.9586314 L147.45552,82.1837345 L155.224087,82.1837345 L155.561773,79.0879168 L155.279901,79.0879168 C155.07825,79.7834353 154.864596,80.3082757 154.639339,80.665039" id="Fill-26" fill="#003366"></path>
                <path d="M174.51155,73.7348855 C174.409925,73.8381328 174.288894,73.8895563 174.152059,73.8895563 C174.044032,73.8895563 173.791968,73.8099199 173.394668,73.6550489 C172.709294,73.3859257 172.058129,73.2506638 171.440573,73.2506638 C170.603561,73.2506638 169.814161,73.4561579 169.069773,73.8671461 C168.325384,74.2793348 167.735035,74.8590003 167.297124,75.6047418 C166.858413,76.3510835 166.639357,77.1400448 166.639357,77.9720258 C166.639357,78.7619876 166.837207,79.505328 167.230907,80.2038478 C167.625207,80.9041685 168.184949,81.4398138 168.911533,81.8121843 C169.637116,82.184955 170.467727,82.3714404 171.402163,82.3714404 C172.113543,82.3714404 172.735101,82.256988 173.267635,82.0288836 C173.80017,81.800579 174.3109,81.4302094 174.802624,80.9189753 L174.802624,80.1654302 C174.294295,80.7540998 173.810173,81.1692899 173.352057,81.4096 C172.89234,81.64991 172.388613,81.7715657 171.836073,81.7715657 C171.163103,81.7715657 170.617164,81.6074906 170.194457,81.2773394 C169.772351,80.9489891 169.461872,80.4637669 169.264022,79.8212726 C169.065772,79.1775779 168.965946,78.4644513 168.965946,77.682093 C168.965946,76.8873291 169.102781,76.1651984 169.37445,75.515701 C169.585703,75.0096693 169.920988,74.5992813 170.378104,74.2839369 C170.83542,73.9709936 171.337947,73.8139217 171.886286,73.8139217 C172.542252,73.8139217 173.1296,74.0276195 173.646731,74.4528143 C174.164462,74.8792095 174.517952,75.4902893 174.7082,76.290856 L174.952462,76.290856 L174.952462,73.2506638 L174.7082,73.2506638 C174.678593,73.4721652 174.612576,73.6332389 174.51155,73.7348855" id="Fill-28" fill="#003366"></path>
                <path d="M185.368959,76.9971194 C185.198916,77.2834505 184.966257,77.4807408 184.669982,77.5911914 C184.373107,77.6998412 183.924994,77.7558668 183.327642,77.7558668 L182.960349,77.7558668 L182.960349,73.9267133 L183.650524,73.9267133 C184.342499,73.9267133 184.844827,74.0861864 185.156505,74.4043321 C185.468184,74.720877 185.624024,75.2133025 185.624024,75.8800078 C185.624024,76.3394182 185.539602,76.7119888 185.368959,76.9971194 M187.902601,81.0157596 L185.80467,78.0564045 C186.337204,77.9211425 186.750909,77.7210509 187.048384,77.4541286 C187.512502,77.0325356 187.744561,76.4980908 187.744561,75.8533956 C187.744561,75.3237531 187.588721,74.8625419 187.279243,74.4681613 C186.968164,74.074381 186.567863,73.8044574 186.076738,73.6585906 C185.585014,73.5105227 184.808817,73.43909 183.749149,73.43909 L179.675718,73.43909 L179.675718,73.663993 C180.084221,73.663993 180.362892,73.7006098 180.51233,73.7726428 C180.662168,73.8470769 180.766194,73.9439212 180.825209,74.0661772 C180.884824,74.1894336 180.914231,74.4865697 180.914231,74.958786 L180.914231,80.6637985 C180.914231,81.1362148 180.884824,81.4325505 180.825209,81.5536059 C180.766194,81.6730606 180.663368,81.7715057 180.51573,81.8471403 C180.368293,81.9209742 180.089623,81.9587915 179.675718,81.9587915 L179.675718,82.1836945 L184.198263,82.1836945 L184.198263,81.9587915 C183.789759,81.9587915 183.511289,81.922775 183.360651,81.8501417 C183.212413,81.7757076 183.109187,81.6788633 183.048372,81.556007 C182.989357,81.433751 182.960349,81.1362148 182.960349,80.6637985 L182.960349,78.2052726 L183.533094,78.2052726 L186.352408,82.1836945 L189.114107,82.1836945 L189.114107,81.940383 C188.880248,81.9267768 188.672996,81.8553441 188.494751,81.7230835 C188.378521,81.6304411 188.179071,81.3937327 187.902601,81.0157596" id="Fill-30" fill="#003366"></path>
                <path d="M199.686404,81.1303121 C199.194079,81.5074848 198.541114,81.6959711 197.724707,81.6959711 L197.203375,81.6959711 C196.953112,81.6959711 196.772466,81.6623557 196.661438,81.5927238 C196.54941,81.5240924 196.473191,81.4356519 196.43298,81.3276024 C196.39177,81.2205534 196.370365,80.9266188 196.370365,80.4447982 L196.370365,77.9814701 C196.792671,77.9814701 197.114353,78.0350947 197.335609,78.1443447 C197.556465,78.2535947 197.751914,78.4666923 197.918356,78.7850381 C198.085399,79.101383 198.195227,79.5095699 198.24764,80.0071978 L198.472097,80.0071978 L198.472097,75.428301 L198.24764,75.428301 C198.176822,76.1066116 198.016981,76.6204469 197.765518,76.9688064 C197.513454,77.3177662 197.106551,77.4924462 196.546409,77.4924462 L196.370365,77.4924462 L196.370365,73.9450217 L197.271393,73.9450217 C197.937161,73.9450217 198.391076,73.9840396 198.633337,74.0602745 C199.048843,74.1877329 199.368724,74.389025 199.595381,74.6601492 C199.822238,74.9334744 199.998683,75.3834804 200.123715,76.0099673 L200.348772,76.0099673 L200.348772,73.43899 L193.031519,73.43899 L193.031519,73.6640931 L193.323193,73.6640931 C193.607665,73.6640931 193.832722,73.7249209 193.996764,73.8469768 C194.114793,73.9296147 194.194014,74.0472685 194.237024,74.1995383 C194.25823,74.2917805 194.269433,74.5384935 194.269433,74.9398773 L194.269433,80.6827071 C194.269433,81.1273107 194.245227,81.4024367 194.198015,81.5074848 C194.137799,81.6551524 194.051577,81.7616012 193.938949,81.8218288 C193.78311,81.9138709 193.578258,81.9586914 193.323193,81.9586914 L193.031519,81.9586914 L193.031519,82.1835944 L200.593234,82.1835944 L200.986333,79.4033212 L200.746072,79.4033212 C200.531218,80.1772757 200.177528,80.7529393 199.686404,81.1303121" id="Fill-32" fill="#003366"></path>
                <path d="M211.229166,80.9602942 C210.852071,81.4503186 210.306533,81.6960311 209.591552,81.6960311 C209.372496,81.6960311 209.206654,81.663016 209.091025,81.5991868 C209.009004,81.555967 208.95119,81.4939386 208.917381,81.4131016 C208.883173,81.3322646 208.865968,81.1095626 208.865968,80.7481971 L208.865968,73.9268734 C209.580949,73.9214709 210.092679,73.9863006 210.400357,74.1197617 C210.837267,74.3094486 211.193758,74.6660119 211.473028,75.1902519 C211.824317,75.8611592 211.998361,76.756169 211.998361,77.8792833 C211.998361,79.2721212 211.742697,80.2989914 211.229166,80.9602942 M211.95535,73.8636445 C211.319989,73.5813152 210.479577,73.43905 209.436313,73.43905 L205.525923,73.43905 L205.525923,73.663953 L205.818197,73.663953 C206.063859,73.663953 206.259708,73.7065725 206.404345,73.7922117 C206.548982,73.8764503 206.645806,73.976296 206.693018,74.0903483 C206.74083,74.2017993 206.765036,74.4865297 206.765036,74.9399373 L206.765036,80.6827671 C206.765036,81.1397764 206.744431,81.4155027 206.706021,81.5075448 C206.641205,81.6470087 206.540779,81.7562587 206.404345,81.8382963 C206.26811,81.918533 206.073861,81.9587515 205.818197,81.9587515 L205.525923,81.9587515 L205.525923,82.1836544 L209.436313,82.1836544 C209.999455,82.1836544 210.411559,82.1582428 210.673626,82.1070194 C211.266376,81.9959685 211.767503,81.8370957 212.177807,81.6328022 C212.58751,81.4285086 212.948802,81.158585 213.262281,80.8196298 C213.577561,80.4820752 213.832626,80.05568 214.030276,79.536042 C214.227526,79.0188052 214.32555,78.4519456 214.32555,77.8378644 C214.32555,76.9470564 214.1249,76.1486908 213.723998,75.443568 C213.322496,74.7392454 212.732747,74.212004 211.95535,73.8636445" id="Fill-34" fill="#003366"></path>
                <path d="M218.937818,73.663993 L219.229492,73.663993 C219.475554,73.663993 219.670404,73.7064125 219.81564,73.7920517 C219.960877,73.8764903 220.056501,73.9763361 220.104313,74.0903883 C220.151525,74.2018393 220.176332,74.4865697 220.176332,74.9399773 L220.176332,80.6828072 C220.176332,81.1274108 220.152126,81.4025367 220.104313,81.5075849 C220.044098,81.6552525 219.957876,81.7615011 219.844648,81.8217287 C219.689809,81.9137709 219.483956,81.9587915 219.229492,81.9587915 L218.937818,81.9587915 L218.937818,82.1836945 L223.514777,82.1836945 L223.514777,81.9587915 L223.225904,81.9587915 C222.979842,81.9587915 222.785592,81.916172 222.642156,81.8305327 C222.49812,81.7466943 222.400695,81.6470487 222.351682,81.5329965 C222.30267,81.4201448 222.277264,81.1362148 222.277264,80.6828072 L222.277264,74.9399773 C222.277264,74.495974 222.30147,74.2196475 222.348282,74.1157999 C222.413098,73.9657312 222.50112,73.8618836 222.612148,73.8008557 C222.767388,73.7094138 222.971639,73.663993 223.225904,73.663993 L223.514777,73.663993 L223.514777,73.43909 L218.937818,73.43909 L218.937818,73.663993 Z" id="Fill-36" fill="#003366"></path>
                <path d="M228.043704,75.8026324 L228.268561,75.8026324 C228.368386,75.1601382 228.606846,74.6659118 228.983542,74.3175523 C229.25221,74.0702391 229.683119,73.9449817 230.276269,73.9449817 L230.933435,73.9449817 L230.933435,80.6826671 C230.933435,81.1272707 230.909229,81.4025968 230.863217,81.5076449 C230.797001,81.6553125 230.709579,81.7615612 230.59755,81.8217887 C230.442911,81.9138309 230.239259,81.9586514 229.985795,81.9586514 L229.694321,81.9586514 L229.694321,82.1837545 L234.272881,82.1837545 L234.272881,81.9586514 L233.984808,81.9586514 C233.736945,81.9586514 233.540295,81.916232 233.396859,81.8305928 C233.254023,81.7467544 233.157798,81.6469087 233.108786,81.5330565 C233.059774,81.4202048 233.034367,81.1362748 233.034367,80.6826671 L233.034367,73.9449817 L233.690933,73.9449817 C234.100037,73.9449817 234.38691,73.9839996 234.549751,74.061435 C234.842025,74.2018994 235.072283,74.3919864 235.241126,74.6304956 C235.408768,74.8686047 235.561607,75.2587833 235.699242,75.8026324 L235.924699,75.8026324 L235.924699,73.43895 L228.043704,73.43895 L228.043704,75.8026324 Z" id="Fill-38" fill="#003366"></path>
                <path d="M253.30946,73.663993 C253.658949,73.663993 253.928817,73.7148163 254.120666,73.8140617 C254.243897,73.8794917 254.346123,73.9963452 254.427543,74.1658228 C254.507364,74.3353004 254.548574,74.6188303 254.548574,75.0144114 L254.548574,78.5706399 C254.548574,79.4970642 254.465353,80.145361 254.301311,80.5185319 C254.135469,80.8911025 253.886807,81.184637 253.555123,81.3971343 C253.223839,81.6098317 252.822537,81.7154801 252.350217,81.7154801 C251.938713,81.7154801 251.598027,81.6316417 251.328359,81.4639649 C251.05849,81.2980889 250.864241,81.0871923 250.746812,80.8338763 C250.629982,80.5805603 250.570367,80.0639238 250.570367,79.2845669 L250.570367,75.0144114 C250.570367,74.5107808 250.596974,74.1948361 250.649987,74.0689785 C250.704401,73.9433209 250.794624,73.8428749 250.921056,73.7714422 C251.047888,73.7006098 251.281747,73.663993 251.620433,73.663993 L251.84609,73.663993 L251.84609,73.43909 L247.324145,73.43909 L247.324145,73.663993 C247.697239,73.6593909 247.953304,73.6940068 248.092139,73.7680407 C248.229574,73.8422747 248.327599,73.9427207 248.383613,74.0637761 C248.440428,74.1894336 248.469235,74.5053783 248.469235,75.0144114 L248.469235,79.2845669 C248.469235,80.0096989 248.584464,80.5859628 248.816523,81.0145591 C249.047381,81.4431553 249.444682,81.7951165 250.007224,82.0696422 C250.418528,82.2705342 251.002476,82.3715805 251.758068,82.3715805 C252.663697,82.3715805 253.377878,82.1806931 253.90101,81.800519 C254.424743,81.4185441 254.754026,80.999152 254.890461,80.5451441 C255.024895,80.0899357 255.091712,79.3511974 255.091712,78.3263281 L255.091712,75.0144114 C255.091712,74.6530459 255.120519,74.4043321 255.177333,74.264468 C255.249952,74.0631758 255.369182,73.9131071 255.532623,73.8140617 C255.696865,73.7148163 255.902317,73.663993 256.148979,73.663993 L256.330225,73.663993 L256.330225,73.43909 L253.30946,73.43909 L253.30946,73.663993 Z" id="Fill-40" fill="#003366"></path>
                <path d="M266.677605,73.663993 C267.161127,73.6563895 267.505214,73.7768447 267.709466,74.0301607 C267.860104,74.2172464 267.934323,74.5780116 267.934323,75.1088547 L267.934323,78.8381624 L263.611429,73.43909 L260.491439,73.43909 L260.491439,73.663993 C260.758306,73.6733973 260.962558,73.7160169 261.104394,73.7932522 C261.24603,73.8688869 261.409471,74.0301607 261.594318,74.2720715 L261.79917,74.5237868 L261.79917,80.6637985 C261.79917,81.1320129 261.704146,81.4639649 261.513898,81.6606549 C261.323849,81.8547438 260.987364,81.9545895 260.504442,81.9587915 L260.504442,82.1836945 L263.638035,82.1836945 L263.638035,81.9587915 L263.426582,81.9587915 C263.123705,81.9587915 262.854637,81.8689503 262.620178,81.6906687 C262.385318,81.5147882 262.268489,81.1722313 262.268489,80.6637985 L262.268489,75.1300644 L268.187587,82.3715805 L268.403842,82.3715805 L268.403842,75.1088547 C268.403842,74.6908633 268.439251,74.3949277 268.510069,74.2238494 C268.580287,74.0507701 268.679512,73.9267133 268.805144,73.8500782 C268.932176,73.7738433 269.179438,73.7112147 269.548332,73.663993 L269.548332,73.43909 L266.677605,73.43909 L266.677605,73.663993 Z" id="Fill-42" fill="#003366"></path>
                <path d="M273.922239,73.663993 L274.213313,73.663993 C274.459375,73.663993 274.655425,73.7064125 274.800661,73.7920517 C274.944698,73.8764903 275.040922,73.9763361 275.088134,74.0903883 C275.135346,74.2018393 275.160753,74.4865697 275.160753,74.9399773 L275.160753,80.6828072 C275.160753,81.1274108 275.136546,81.4025367 275.088734,81.5075849 C275.027919,81.6552525 274.942297,81.7615011 274.829069,81.8217287 C274.674229,81.9137709 274.468977,81.9587915 274.213313,81.9587915 L273.922239,81.9587915 L273.922239,82.1836945 L278.499598,82.1836945 L278.499598,81.9587915 L278.209725,81.9587915 C277.964863,81.9587915 277.770013,81.916172 277.626577,81.8305327 C277.48134,81.7466943 277.385716,81.6470487 277.336704,81.5329965 C277.285291,81.4201448 277.261084,81.1362148 277.261084,80.6828072 L277.261084,74.9399773 C277.261084,74.495974 277.285291,74.2196475 277.332502,74.1157999 C277.397519,73.9657312 277.485541,73.8618836 277.59757,73.8008557 C277.751609,73.7094138 277.95546,73.663993 278.209725,73.663993 L278.499598,73.663993 L278.499598,73.43909 L273.922239,73.43909 L273.922239,73.663993 Z" id="Fill-44" fill="#003366"></path>
                <path d="M289.729021,80.245807 C289.517768,80.8492834 289.223693,81.2896851 288.845197,81.5636105 C288.548322,81.7781087 288.178829,81.8861582 287.734316,81.8861582 C287.076149,81.8861582 286.56422,81.6374443 286.198127,81.1386159 C285.673394,80.4258895 285.410728,79.3247853 285.410728,77.832702 C285.410728,76.5785277 285.580771,75.616087 285.920857,74.9465804 C286.338763,74.1310069 286.947917,73.7224198 287.747319,73.7224198 C288.181829,73.7224198 288.566127,73.8410741 288.899611,74.0773823 C289.233696,74.3140907 289.508765,74.7184759 289.723019,75.2913382 C289.938074,75.8658013 290.044901,76.7295969 290.044901,77.8857263 C290.044901,78.8553703 289.939674,79.6417304 289.729021,80.245807 M287.6705,73.3092306 C286.380173,73.257807 285.293298,73.6651936 284.410074,74.53079 C283.526451,75.3969866 283.084139,76.478682 283.084139,77.7770765 C283.084139,78.9338062 283.423625,79.9328637 284.103797,80.7754496 C284.963815,81.841938 286.179922,82.3743818 287.753121,82.3743818 C289.323518,82.3743818 290.538426,81.8159261 291.398444,80.6982142 C292.047408,79.8554283 292.37189,78.8795814 292.37189,77.7706736 C292.37189,76.4728793 291.93698,75.3915841 291.06616,74.5283889 C290.195939,73.663993 289.063252,73.257807 287.6705,73.3092306" id="Fill-46" fill="#003366"></path>
                <path d="M302.966152,73.663993 C303.450275,73.6563895 303.794362,73.7768447 303.999214,74.0301607 C304.148652,74.2172464 304.223671,74.5780116 304.223671,75.1088547 L304.223671,78.8381624 L299.901777,73.43909 L296.779986,73.43909 L296.779986,73.663993 C297.046854,73.6733973 297.251706,73.7160169 297.393341,73.7932522 C297.534377,73.8688869 297.698619,74.0301607 297.883466,74.2720715 L298.088117,74.5237868 L298.088117,80.6637985 C298.088117,81.1320129 297.993093,81.4639649 297.803045,81.6606549 C297.613597,81.8547438 297.276512,81.9545895 296.792989,81.9587915 L296.792989,82.1836945 L299.926983,82.1836945 L299.926983,81.9587915 L299.715729,81.9587915 C299.412853,81.9587915 299.144985,81.8689503 298.908725,81.6906687 C298.674466,81.5147882 298.557436,81.1722313 298.557436,80.6637985 L298.557436,75.1300644 L304.476735,82.3715805 L304.692189,82.3715805 L304.692189,75.1088547 C304.692189,74.6908633 304.728198,74.3949277 304.799216,74.2238494 C304.870034,74.0507701 304.967859,73.9267133 305.094291,73.8500782 C305.221723,73.7738433 305.468586,73.7112147 305.838079,73.663993 L305.838079,73.43909 L302.966152,73.43909 L302.966152,73.663993 Z" id="Fill-48" fill="#003366"></path>
                <path d="M306.447354,49.8869048 C304.747123,48.3405967 302.155667,46.7840839 298.676186,45.2199676 C295.195505,43.6564516 292.881519,42.5463433 291.730228,41.8920437 C290.579136,41.2367436 290.004191,40.2582955 290.004191,38.9574998 C290.004191,37.7943672 290.577936,36.9133638 291.723226,36.3140893 C292.867316,35.7148149 294.230861,35.4154778 295.80946,35.4154778 C299.924102,35.4154778 303.327964,35.6203717 306.319721,39.1103699 L306.285713,30.2707219 C305.396488,30.8653942 304.10136,30.6456936 303.535817,30.6456936 C302.633788,30.6456936 301.269043,30.5058296 299.44018,30.2259014 C297.609916,29.9459732 296.173153,29.8055089 295.128288,29.8055089 C292.803499,29.8055089 290.562532,30.2040914 288.405586,31.0012564 C286.247239,31.7982214 284.497396,32.9271384 283.150255,34.3880073 C281.805515,35.848276 281.133745,37.496831 281.133745,39.3318713 C281.133745,41.8744356 281.98156,43.9469847 283.677989,45.5499187 C285.374819,47.1530528 287.917862,48.7449818 291.30652,50.326306 C294.694978,51.90743 297.011365,53.0795668 298.25708,53.8423161 C299.503796,54.6046652 300.127154,55.6797575 300.127154,57.0673929 C300.127154,58.2395297 299.534404,59.1937667 298.349103,59.9299038 C297.163803,60.6674415 295.797657,61.0358102 294.252266,61.0358102 C291.436353,61.0358102 288.999336,60.4761539 286.941415,59.3554407 C284.882294,58.2353278 284.054684,58.0140264 282.095988,55.9544833 L281.728896,64.79133 C282.478485,64.9411986 283.028825,65.1242824 283.784416,65.2753516 C283.872838,65.2931598 284.467989,65.3922051 285.568268,65.5988998 C288.292157,66.1941724 291.072661,66.4905081 293.906379,66.4905081 C296.785908,66.4905081 299.367961,66.0855226 301.65374,65.2753516 C303.938519,64.4665812 305.734173,63.2596285 307.040104,61.6570947 C308.345834,60.0533603 309,58.1184743 309,55.8522365 C309,53.4219236 308.148584,51.4332129 306.447354,49.8869048" id="Fill-50" fill="#003366"></path>
                <path d="M261.532282,45.3280371 L261.532282,34.8320307 C265.285632,34.8320307 271.669449,34.8450366 271.533614,40.0652271 C271.400381,45.1963768 265.365853,45.3280371 261.532282,45.3280371 M282.02387,65.2865767 C280.985007,64.2096836 280.143194,62.9058866 279.300181,61.6677196 C278.117081,59.9287232 276.975392,58.1597131 275.8207,56.4009077 C274.747428,54.7657589 273.676557,53.1268084 272.521865,51.5506867 C272.114561,50.9934315 271.696656,50.4389776 271.234939,49.9277435 C270.993077,49.6590204 270.696602,49.3012566 270.345914,49.1830024 C272.486456,48.5188983 274.904468,48.2861917 276.727529,46.9151639 C278.54579,45.5465372 279.14074,42.6284009 279.089927,40.5636554 C279.058119,39.2522548 278.709831,37.9236464 278.174896,36.5904359 C277.713379,35.4367076 276.96719,34.1389133 276.161986,33.2024844 C274.539775,31.3164208 272.177177,30.2943527 269.799375,30.0004181 C266.424921,29.5824267 262.949041,29.7495032 259.554581,29.7495032 L251.29229,29.7495032 C254.149613,31.8296558 254.062191,35.3564708 254.062191,38.5933531 L254.062191,45.4715028 L254.062191,56.5749874 L254.062191,59.2356058 C254.062191,60.2748817 254.010178,61.3233619 253.784721,62.339027 C253.447035,63.8635251 252.530803,64.9476215 251.29229,65.8186204 L264.021112,65.8186204 C263.1817,65.20634 262.426108,64.4315852 261.981996,63.4651427 C261.600699,62.6325614 261.475668,61.6735222 261.382244,60.766707 C261.252411,59.5191357 261.252411,58.2655616 261.24881,57.0119876 C261.244209,55.0072695 261.238208,53.0021513 261.233607,50.9970331 C261.472067,50.9970331 261.706926,51.1226907 261.908777,51.2431458 C263.119084,51.9676776 264.113136,53.1610241 265.03997,54.2173078 C266.377709,55.7418059 267.630426,57.3455403 268.837132,58.9798887 C269.928008,60.4549642 270.989477,61.9582526 271.963523,63.5175667 C272.278803,64.0241987 272.591482,64.5366333 272.855949,65.0740794 C272.925767,65.2157443 273.190234,65.6479422 273.078005,65.8186204 C276.282417,65.815619 279.486828,65.8132179 282.691039,65.8104166 C282.431373,65.7175741 282.212918,65.4820663 282.02387,65.2865767" id="Fill-52" fill="#003366"></path>
                <path d="M113.80084,53.9162299 C113.351726,55.8575189 112.520115,57.5096755 111.306608,58.8743004 C110.093301,60.2387252 108.435081,60.9202373 106.332149,60.9202373 C104.210812,60.9202373 102.54339,60.240526 101.330082,58.8807033 C100.116575,57.5208806 99.282764,55.8683238 98.8290492,53.9232331 C98.3751342,51.9777422 98.1480767,49.9836291 98.1480767,47.9418941 C98.1480767,45.9083629 98.3751342,43.9222534 98.8290492,41.9807643 C99.282764,40.0404758 100.118976,38.3855179 101.337084,37.0160908 C102.554992,35.6480644 104.220414,34.963751 106.332149,34.963751 C109.398325,34.963751 111.522263,36.2863566 112.703162,38.9309677 C113.884461,41.5763791 114.47481,44.5799545 114.47481,47.9418941 C114.47481,49.9836291 114.250153,51.9759414 113.80084,53.9162299 M122.673086,47.9418941 C122.673086,44.5267302 122.091539,41.4045004 120.929244,38.5750047 C119.76655,35.7449087 117.953291,33.4804717 115.489267,31.7818939 C113.024843,30.083116 109.972871,29.2333268 106.332149,29.2333268 C102.701029,29.2333268 99.6534579,30.083116 97.189434,31.7818939 C94.7254102,33.4804717 92.9119511,35.7449087 91.7494568,38.5750047 C90.5867624,41.4045004 90.0056152,44.5267302 90.0056152,47.9418941 C90.0056152,51.3748661 90.5867624,54.508301 91.7494568,57.342599 C92.9119511,60.1766968 94.7254102,62.4459359 97.189434,64.1489158 C99.6534579,65.8516955 102.701029,66.7030854 106.332149,66.7030854 C109.972871,66.7030854 113.024843,65.8516955 115.489267,64.1489158 C117.953291,62.4459359 119.76655,60.1766968 120.929244,57.342599 C122.091539,54.508301 122.673086,51.3748661 122.673086,47.9418941" id="Fill-54" fill="#003366"></path>
                <path d="M160.901325,62.7659825 C160.498623,63.9279146 159.713824,64.9363764 158.546728,65.7895671 L170.95487,65.7895671 C169.722158,64.8915559 168.921555,63.9103065 168.550861,62.845619 C168.180167,61.7811315 167.99472,60.3632822 167.99472,58.5944722 L167.99472,40.8635527 L184.113401,65.7895671 L194.408808,65.7895671 C193.102877,65.1820889 192.236258,64.2644687 191.81015,63.0369066 C191.383842,61.8093444 191.171388,60.3284663 191.171388,58.5944722 L191.171388,38.4208341 C191.171388,36.2474388 191.356835,34.4688243 191.727529,33.0871917 C192.097023,31.705559 192.990849,30.5830449 194.408808,29.7204499 L181.722396,29.7204499 C183.047131,30.7147052 183.880742,31.8838406 184.224429,33.225455 C184.566716,34.5680698 184.737959,36.2998628 184.737959,38.4208341 L184.737959,53.9999683 L169.425883,29.7204499 L158.546728,29.7204499 C159.686217,30.5388247 160.464414,31.5272773 160.881319,32.6846073 C161.298025,33.8419373 161.505878,35.2175672 161.505878,36.8100965 L161.505878,58.5944722 C161.505878,60.2140139 161.305227,61.6046507 160.901325,62.7659825" id="Fill-56" fill="#003366"></path>
                <path d="M218.11667,54.6336384 C217.569932,56.5171009 216.528668,58.0091842 214.992679,59.109288 C213.45649,60.2093917 211.28294,60.7596437 208.469428,60.7596437 L205.402051,60.7596437 L205.402051,34.8031574 L207.678428,34.8031574 C209.648926,34.8031574 211.340755,34.9732353 212.751712,35.3121905 C214.162669,35.6511458 215.330165,36.3654729 216.255799,37.4571728 C218.042251,39.6135603 218.934877,43.0553364 218.934877,47.7813005 C218.934877,50.46613 218.662008,52.7499759 218.11667,54.6336384 M225.10504,37.7276967 C223.789707,35.0476694 221.764994,33.0435517 219.029301,31.7137427 C216.292608,30.3853344 212.813128,29.7204299 208.592259,29.7204299 L195.162059,29.7204299 C196.032279,30.3369122 196.675642,31.0584426 197.092547,31.8856214 C197.509253,32.7130003 197.766518,33.5471823 197.864543,34.387367 C197.961367,35.2281521 198.00978,36.3218529 198.00978,37.6680694 L198.00978,59.2939726 C198.00978,60.869494 197.840937,62.1412764 197.503251,63.1095198 C197.164366,64.0779633 196.383968,64.9707721 195.162059,65.7895471 L208.592259,65.7895471 C212.841335,65.7895471 216.333819,65.1278441 219.070712,63.8028373 C221.806204,62.4778305 223.825116,60.4821166 225.126245,57.8156956 C226.426174,55.1484742 227.076739,51.8035424 227.076739,47.7813005 C227.076739,43.7592587 226.420373,40.407724 225.10504,37.7276967" id="Fill-58" fill="#003366"></path>
                <path d="M251.461132,57.8946718 C250.599314,58.9775677 249.749099,59.690294 248.910887,60.0332511 C248.072674,60.3770085 246.875371,60.5480868 245.319377,60.5480868 L235.871585,60.5480868 L235.871585,48.8111121 L243.555331,48.8111121 C244.916675,48.8111121 245.930932,48.9563786 246.597901,49.2469117 C247.26507,49.5374447 247.992254,50.1667329 248.779854,51.1351764 L248.779854,41.7740897 C248.306334,42.6196769 247.636964,43.1651267 246.771545,43.4114394 C245.904926,43.6575521 244.81525,43.7810087 243.499917,43.7810087 L235.871585,43.7810087 L235.871585,34.9619702 L243.888415,34.9619702 C245.593247,34.9619702 246.87077,35.1160407 247.723186,35.4243819 C248.575602,35.732523 249.325192,36.4976734 249.974556,37.7212337 L249.126941,29.72057 L225.631593,29.72057 C226.881909,30.6179809 227.668309,31.6766657 227.992991,32.8960241 C228.317673,34.1145821 228.479314,35.7053106 228.479314,37.6680094 L228.479314,59.2941126 C228.479314,60.8612302 228.310471,62.1260094 227.971785,63.0894506 C227.6341,64.0530919 226.853502,64.9535042 225.631593,65.7896871 L250.5437,65.7896871 L251.461132,57.8946718 Z" id="Fill-60" fill="#003366"></path>
                <path d="M155.122281,62.6773819 C154.801,61.4574233 154.640559,59.8787003 154.640559,57.9420134 L154.640559,29.8703586 L143.576758,29.8703586 C144.77026,30.7041404 145.527452,31.7446168 145.848734,32.9903873 C146.169415,34.2363579 146.330055,35.8268862 146.330055,37.7625727 L146.330055,50.3715467 C146.330055,52.2434039 146.169415,53.8819542 145.848734,55.2883983 C145.527452,56.6948423 144.860483,57.8497712 143.846827,58.7531849 C142.83357,59.6577992 141.357997,60.1088057 139.421306,60.1088057 C136.707419,60.1088057 134.885758,59.2562153 133.956923,57.5504341 C133.027888,55.844653 132.56337,53.5642087 132.56337,50.7089012 L132.56337,29.8703586 L121.482565,29.8703586 C122.68747,30.7159458 123.450463,31.7588234 123.771344,32.9997916 C124.092225,34.2415603 124.252666,35.8304879 124.252666,37.7671748 L124.252666,51.1044823 C124.252666,54.1760889 124.497728,56.8188991 124.988052,59.0337134 C125.478176,61.2485276 126.534644,63.0783655 128.157454,64.5232272 C129.780265,65.9674886 132.147065,66.6896192 135.257252,66.6896192 C139.877622,66.6896192 143.731798,65.0214553 146.819779,61.6855277 L146.819779,65.8386296 L157.411061,65.8386296 C156.206156,64.9506229 155.443363,63.8973406 155.122281,62.6773819" id="Fill-62" fill="#003366"></path>
                <path d="M79.9144404,47.5841302 C79.9144404,44.7824473 79.8628273,44.7860489 82.7299532,44.8520792 C83.9868714,44.8816927 87.3757294,44.8804922 89.3464284,44.9371181 C88.7268715,42.1206283 88.9805357,43.0216409 88.1077147,40.4590675 C85.7145088,40.5995318 86.4831034,40.519295 83.996874,40.5158935 C82.6201254,40.5134924 79.9708547,40.8038253 79.9708547,38.5153774 C79.9708547,34.9565477 79.9710547,29.063249 79.9710547,25.5040191 C79.9710547,24.5345751 87.239695,24.7600784 88.5218196,24.7600784 C91.8594646,24.7600784 99.5062006,24.2664524 102.572377,28.4167529 C102.284304,27.3704738 100.524858,20.4911235 99.9333087,20.4911235 C97.0335746,20.4911235 95.3419463,20.5017284 92.4422121,20.5135338 C84.4035769,20.5477495 76.3409356,20.4799184 68.3025005,20.5135338 C73.1807355,24.1956199 71.5665269,33.4292483 71.5665269,38.9545785 L71.5665269,55.4249208 C71.5665269,58.6025759 70.1597707,63.8481781 67.4412824,65.8044739 C72.4729563,65.8044739 79.7283933,65.8322866 84.7572665,65.8322866 C80.0142656,62.3036708 79.9144404,52.8621472 79.9144404,47.5841302" id="Fill-64" fill="#003366"></path>
            </g>
        </g>
    </g>
</svg>