<?xml version="1.0" encoding="UTF-8"?> <svg xmlns="http://www.w3.org/2000/svg" width="132" height="63" viewBox="0 0 132 63" fill="none"><path d="M29.9203 23.9659V2.17896H34.243L45.1125 16.2474V2.17896H49.404V23.9659H45.3945L34.2109 9.40019V23.9659H29.9194H29.9203Z" fill="#282828"></path><path d="M59.7494 24.2771C58.1203 24.2771 56.6482 23.9039 55.3322 23.1566C54.0171 22.4093 52.9729 21.3979 52.1997 20.1222C51.4265 18.8465 51.0408 17.4299 51.0408 15.8742C51.0408 14.3184 51.4265 12.8708 52.1997 11.5943C52.9721 10.3186 54.0163 9.31214 55.3322 8.57576C56.6473 7.83938 58.1203 7.47119 59.7494 7.47119C61.3786 7.47119 62.8507 7.83938 64.1667 8.57576C65.4818 9.31214 66.5259 10.3186 67.2992 11.5943C68.0707 12.8708 68.4581 14.2974 68.4581 15.8742C68.4581 17.4509 68.0766 18.8465 67.3143 20.1222C66.5521 21.3987 65.5139 22.4102 64.1979 23.1566C62.8828 23.9039 61.3997 24.2771 59.7494 24.2771ZM59.7494 20.5734C60.6054 20.5734 61.3786 20.3604 62.0682 19.9352C62.7562 19.5099 63.3006 18.9446 63.6965 18.2393C64.0924 17.5339 64.2916 16.7355 64.2916 15.8431C64.2916 14.9507 64.0882 14.1833 63.6813 13.4771C63.2736 12.7718 62.73 12.2115 62.0522 11.7964C61.3727 11.3812 60.6163 11.1741 59.7807 11.1741C58.945 11.1741 58.1524 11.3821 57.4628 11.7964C56.774 12.2115 56.2304 12.7718 55.8336 13.4771C55.4369 14.1825 55.2385 14.9717 55.2385 15.8431C55.2385 16.7145 55.4369 17.5348 55.8336 18.2393C56.2304 18.9446 56.768 19.5108 57.4476 19.9352C58.1262 20.3604 58.8927 20.5734 59.7494 20.5734Z" fill="#282828"></path><path d="M70.3768 23.9659V7.74955H74.6995V9.55444C75.2017 8.84909 75.8222 8.3098 76.5641 7.93574C77.3053 7.56252 78.135 7.37549 79.0543 7.37549C79.868 7.39646 80.4639 7.51052 80.8395 7.71852V11.4843C80.5053 11.3392 80.1558 11.2251 79.7895 11.1421C79.424 11.0591 79.0424 11.0171 78.6466 11.0171C77.8109 11.0171 77.0487 11.2302 76.359 11.6554C75.6711 12.0806 75.1165 12.6778 74.6987 13.4452V23.965H70.376L70.3768 23.9659Z" fill="#282828"></path><path d="M91.768 24.215C89.9718 24.215 88.6085 23.8057 87.68 22.9855C86.7515 22.1661 86.2864 20.9776 86.2864 19.4218V11.2982H82.9336V7.75045H86.2864V3.61061L90.5458 2.64526V7.74961H95.2449V11.2973H90.5458V18.5186C90.5458 19.2658 90.718 19.8001 91.0624 20.1213C91.4076 20.4434 91.9867 20.6036 92.8012 20.6036C93.2402 20.6036 93.631 20.5776 93.9754 20.5256C94.3206 20.4736 94.7013 20.3855 95.12 20.2614V23.747C94.6802 23.8921 94.1375 24.0062 93.49 24.0892C92.8426 24.1722 92.2686 24.2142 91.7672 24.2142L91.768 24.215Z" fill="#282828"></path><path d="M97.4692 23.9659V2.17894L101.761 1.24463V9.08818C103.014 7.98864 104.549 7.43929 106.365 7.43929C107.618 7.43929 108.73 7.71438 109.702 8.26373C110.674 8.81392 111.43 9.57127 111.974 10.5358C112.515 11.5003 112.787 12.6158 112.787 13.8814V23.9659H108.528V14.5356C108.528 13.4771 108.219 12.6426 107.604 12.0303C106.987 11.4189 106.158 11.112 105.113 11.112C104.382 11.112 103.736 11.252 103.171 11.5322C102.608 11.8123 102.138 12.2123 101.762 12.7307V23.9668H97.4701L97.4692 23.9659Z" fill="#282828"></path><path d="M40.258 49.7426C38.6297 49.7426 37.1044 49.4574 35.6846 48.8871C34.264 48.3168 33.0274 47.5234 31.9731 46.506C30.9188 45.4895 30.0941 44.3019 29.499 42.9432C28.9039 41.5845 28.606 40.1159 28.606 38.5383C28.606 36.9607 28.9039 35.493 29.499 34.1343C30.0941 32.7756 30.9239 31.5821 31.9891 30.5547C33.0544 29.5273 34.291 28.7289 35.7007 28.1577C37.1103 27.5874 38.6306 27.3022 40.2589 27.3022C41.4702 27.3022 42.6393 27.4683 43.767 27.8004C44.8947 28.1326 45.9448 28.5997 46.9147 29.2011C47.8862 29.8033 48.7168 30.5287 49.4048 31.38L46.3356 34.3683C45.5632 33.3929 44.6541 32.6616 43.6108 32.1743C42.5658 31.687 41.4482 31.4429 40.258 31.4429C39.2763 31.4429 38.3571 31.6249 37.502 31.9872C36.6452 32.3504 35.9041 32.8486 35.2769 33.4818C34.6515 34.115 34.1593 34.8564 33.8048 35.7069C33.4495 36.5582 33.2722 37.5017 33.2722 38.5392C33.2722 39.5767 33.4554 40.4648 33.8209 41.3254C34.1855 42.1859 34.6869 42.9332 35.3242 43.5664C35.9607 44.1988 36.7136 44.6919 37.5797 45.045C38.4457 45.3981 39.4013 45.5742 40.4454 45.5742C41.5943 45.5742 42.6705 45.336 43.6724 44.8588C44.6744 44.3816 45.5514 43.6972 46.3035 42.804L49.2486 45.7294C48.559 46.5597 47.7394 47.2751 46.7889 47.8773C45.8393 48.4795 44.8002 48.9408 43.6724 49.262C42.5447 49.5832 41.406 49.7443 40.2572 49.7443L40.258 49.7426Z" fill="#282828"></path><path d="M58.3203 49.7427C56.6904 49.7427 55.2132 49.3644 53.8871 48.6071C52.5601 47.8497 51.5109 46.8433 50.7394 45.5878C49.9662 44.3322 49.5796 42.9165 49.5796 41.3397C49.5796 39.763 49.951 38.3674 50.6921 37.0917C51.4333 35.8152 52.4411 34.8037 53.7149 34.0573C54.9886 33.31 56.3983 32.9368 57.943 32.9368C59.4877 32.9368 60.9033 33.315 62.1256 34.0724C63.347 34.8297 64.3076 35.8622 65.0074 37.1689C65.7071 38.4764 66.0566 39.9701 66.0566 41.6509V42.7714H53.9647C54.153 43.4147 54.467 43.9959 54.9051 44.5142C55.344 45.0334 55.8766 45.4326 56.503 45.7127C57.1293 45.9929 57.808 46.1329 58.539 46.1329C59.27 46.1329 59.9174 46.0239 60.5437 45.8058C61.1709 45.5878 61.7035 45.2716 62.1416 44.8564L64.9609 47.4086C63.959 48.2179 62.93 48.8092 61.8757 49.1824C60.8214 49.5565 59.6363 49.7427 58.3212 49.7427H58.3203ZM53.9031 39.721H61.8597C61.6926 39.0786 61.4165 38.5125 61.0299 38.0252C60.6433 37.5379 60.1791 37.1588 59.6363 36.8896C59.0927 36.6204 58.5086 36.4845 57.8814 36.4845C57.2129 36.4845 56.6076 36.6145 56.0657 36.8736C55.5221 37.1336 55.0671 37.5069 54.7033 37.9941C54.3378 38.4814 54.0703 39.0576 53.904 39.7219L53.9031 39.721Z" fill="#282828"></path><path d="M67.3901 49.4315V33.2152H71.6816V34.5529C72.9342 33.4534 74.4697 32.9041 76.287 32.9041C77.5397 32.9041 78.6514 33.1791 79.623 33.7285C80.5937 34.2787 81.3508 35.036 81.8936 36.0005C82.4364 36.9651 82.7082 38.0805 82.7082 39.347V49.4315H78.448V40.0012C78.448 38.9427 78.1399 38.1074 77.5237 37.4951C76.9075 36.8837 76.0777 36.5767 75.0335 36.5767C74.3025 36.5767 73.6551 36.7168 73.0921 36.9969C72.5274 37.277 72.0581 37.6771 71.6824 38.1954V49.4315H67.391H67.3901Z" fill="#282828"></path><path d="M91.807 49.6796C90.0107 49.6796 88.6475 49.2703 87.719 48.4501C86.7888 47.6307 86.3245 46.4422 86.3245 44.8873V36.7628H82.9734V33.215H86.3245V29.0752L90.5847 28.1099V33.2142H95.283V36.7619H90.5847V43.9832C90.5847 44.7296 90.7569 45.2647 91.1022 45.5859C91.4466 45.908 92.0256 46.069 92.8402 46.069C93.2791 46.069 93.6699 46.043 94.0152 45.991C94.3604 45.939 94.7403 45.8509 95.1581 45.7268V49.2125C94.72 49.3584 94.1764 49.4725 93.5298 49.5555C92.8815 49.6385 92.3075 49.6796 91.807 49.6796Z" fill="#282828"></path><path d="M97.5072 49.4314V33.2151H101.83V35.02C102.331 34.3147 102.952 33.7754 103.694 33.4013C104.435 33.0281 105.265 32.8411 106.184 32.8411C106.997 32.862 107.593 32.9761 107.969 33.1841V36.9499C107.635 36.8048 107.285 36.6907 106.92 36.6077C106.554 36.5246 106.173 36.4827 105.777 36.4827C104.941 36.4827 104.179 36.6957 103.489 37.121C102.801 37.5462 102.246 38.1433 101.829 38.9108V49.4306H97.5063L97.5072 49.4314Z" fill="#282828"></path><path d="M114.721 49.7117C113.572 49.7117 112.549 49.4987 111.651 49.0743C110.753 48.6491 110.053 48.062 109.553 47.3155C109.05 46.5691 108.801 45.7077 108.801 44.7323C108.801 43.1757 109.386 41.9679 110.555 41.1066C111.725 40.2461 113.353 39.815 115.442 39.815C116.862 39.815 118.199 40.0331 119.452 40.4692V39.2858C119.452 38.3523 119.159 37.6469 118.574 37.1697C117.989 36.6925 117.134 36.4535 116.006 36.4535C115.337 36.4535 114.596 36.5625 113.782 36.7806C112.967 36.9986 112.048 37.3358 111.025 37.792L109.49 34.6176C110.785 34.0573 112.017 33.6321 113.187 33.341C114.356 33.0509 115.526 32.9058 116.695 32.9058C118.929 32.9058 120.652 33.43 121.863 34.4775C123.074 35.525 123.68 37.0037 123.68 38.9134V49.4332H119.452V48.2817C118.783 48.7799 118.063 49.1422 117.29 49.3712C116.517 49.5993 115.661 49.7134 114.721 49.7134V49.7117ZM112.873 44.6384C112.873 45.2607 113.144 45.7538 113.687 46.117C114.23 46.4802 114.951 46.6622 115.849 46.6622C116.558 46.6622 117.211 46.5791 117.806 46.4131C118.401 46.247 118.949 45.9778 119.451 45.6046V43.2394C118.928 43.0105 118.386 42.8494 117.822 42.7563C117.259 42.6632 116.652 42.6163 116.005 42.6163C115.023 42.6163 114.256 42.7932 113.703 43.1455C113.149 43.4994 112.873 43.9968 112.873 44.6401V44.6384Z" fill="#282828"></path><path d="M126.139 49.4315V27.6445L130.431 26.9282V49.4315H126.139Z" fill="#282828"></path><path d="M31.0344 60.9034V56.6235H34.21V57.1855H31.6802V58.5006H33.3481V59.0449H31.6802V60.9043H31.0344V60.9034Z" fill="#282828"></path><path d="M35.0843 60.9034L36.8637 56.6235H37.62L39.3859 60.9034H38.6845L38.1856 59.6496H36.2534L35.7546 60.9034H35.0835H35.0843ZM36.4695 59.1178H37.9771L37.2267 57.2341L36.4695 59.1178Z" fill="#282828"></path><path d="M41.281 60.9034V56.6235H42.1369L43.4909 59.3636L44.8389 56.6235H45.7067V60.9034H45.0846V57.4052L43.4841 60.5973L41.8778 57.4052V60.9034H41.281Z" fill="#282828"></path><path d="M48.0271 60.9034V56.6235H48.6728V60.9034H48.0271Z" fill="#282828"></path><path d="M50.9993 60.9034V56.6235H51.6459V60.3348H54.1199V60.9034H50.9993Z" fill="#282828"></path><path d="M56.5933 60.9033V59.2032L54.8586 56.6226H55.6091L56.9318 58.6405L58.2612 56.6226H58.9754L57.2399 59.2217V60.9033H56.5933Z" fill="#282828"></path><path d="M63.5849 60.9034V56.6235H64.44L65.794 59.3636L67.1412 56.6235H68.0089V60.9034H67.3868V57.4052L65.7864 60.5973L64.18 57.4052V60.9034H63.5833H63.5849Z" fill="#282828"></path><path d="M70.3303 60.9034V56.6235H73.5059V57.1855H70.9761V58.4704H72.6255V59.0147H70.9761V60.3415H73.5303V60.9043H70.3303V60.9034Z" fill="#282828"></path><path d="M75.6404 60.9034V56.6235H77.1539C77.4822 56.6235 77.7827 56.6755 78.0554 56.7821C78.3289 56.8886 78.5669 57.0379 78.7729 57.2316C78.978 57.4253 79.1384 57.6526 79.2532 57.9135C79.368 58.1735 79.4254 58.4578 79.4254 58.7631C79.4254 59.0684 79.368 59.3577 79.2532 59.616C79.1384 59.8752 78.9788 60.1016 78.7754 60.2945C78.5728 60.4883 78.3331 60.6376 78.0588 60.7441C77.7836 60.8506 77.4822 60.9034 77.1539 60.9034H75.6404ZM76.2861 60.3289H77.1665C77.3919 60.3289 77.6021 60.2903 77.7945 60.2123C77.9878 60.1352 78.1575 60.0253 78.3027 59.8827C78.4479 59.7402 78.561 59.5741 78.6412 59.3845C78.7214 59.195 78.7611 58.9904 78.7611 58.7698C78.7611 58.5492 78.7197 58.337 78.6378 58.1458C78.5559 57.9537 78.4437 57.7877 78.2993 57.6468C78.1558 57.5059 77.9878 57.396 77.7945 57.3171C77.6021 57.2375 77.3911 57.198 77.1615 57.198H76.287V60.3289H76.2861Z" fill="#282828"></path><path d="M81.561 60.9034V56.6235H82.2076V60.9034H81.561Z" fill="#282828"></path><path d="M86.6011 60.9713C86.282 60.9713 85.9858 60.9151 85.7123 60.8027C85.4388 60.6903 85.1991 60.5335 84.9914 60.3314C84.7846 60.1301 84.6242 59.8952 84.512 59.6277C84.3988 59.361 84.3423 59.0733 84.3423 58.7622C84.3423 58.451 84.398 58.1583 84.512 57.8907C84.6242 57.624 84.7846 57.3909 84.9914 57.1904C85.1991 56.9908 85.4405 56.8348 85.7157 56.7224C85.99 56.61 86.2863 56.5547 86.6011 56.5547C86.8265 56.5547 87.0477 56.584 87.2637 56.6428C87.479 56.7015 87.6774 56.787 87.8605 56.8969C88.042 57.0067 88.2041 57.1409 88.3434 57.3003L87.9061 57.7339C87.7466 57.5427 87.5516 57.3967 87.322 57.2969C87.0915 57.1971 86.8527 57.1477 86.6011 57.1477C86.3715 57.1477 86.1605 57.1879 85.968 57.2701C85.7747 57.3515 85.6051 57.4655 85.4599 57.6123C85.3147 57.7591 85.2016 57.9302 85.1214 58.1256C85.0412 58.321 85.0015 58.5332 85.0015 58.7613C85.0015 58.9894 85.0412 59.2016 85.1214 59.3979C85.2016 59.5933 85.3147 59.7644 85.4599 59.9112C85.6051 60.058 85.7781 60.172 85.9765 60.2534C86.1748 60.3347 86.3876 60.3758 86.6138 60.3758C86.8645 60.3758 87.1017 60.3238 87.3279 60.2223C87.5533 60.1209 87.7449 59.98 87.9002 59.8005L88.3248 60.2282C88.1855 60.3792 88.0243 60.5108 87.842 60.6224C87.6588 60.7348 87.463 60.8212 87.2511 60.8799C87.0392 60.9386 86.8231 60.9688 86.6011 60.9688V60.9713Z" fill="#282828"></path><path d="M90.4106 60.9034V56.6235H91.0564V60.9034H90.4106Z" fill="#282828"></path><path d="M93.3828 60.9034V56.6235H94.0108L96.4115 59.8031V56.6235H97.0201V60.9034H96.4478L93.9923 57.6325V60.9034H93.3828Z" fill="#282828"></path><path d="M99.3533 60.9034V56.6235H102.529V57.1855H99.999V58.4704H101.648V59.0147H99.999V60.3415H102.553V60.9043H99.3533V60.9034Z" fill="#282828"></path><path d="M17.669 23.966C15.9428 23.966 14.2428 23.1608 13.1758 21.6545C12.3334 20.4644 12.0067 19.0193 12.2583 17.5851C12.509 16.1518 13.3075 14.9004 14.5053 14.0634C16.9794 12.3357 20.4056 12.9286 22.1453 15.3852C22.9877 16.5753 23.3136 18.0204 23.062 19.4546C22.8113 20.8879 22.0128 22.1393 20.815 22.9763C19.8578 23.6448 18.7579 23.966 17.6682 23.966H17.669ZM15.8491 15.9606C15.1612 16.4411 14.7028 17.1591 14.5593 17.9827C14.415 18.8054 14.6024 19.6358 15.086 20.3193C16.0855 21.7308 18.0531 22.0705 19.4729 21.0783C20.1608 20.5977 20.6192 19.8798 20.7635 19.0562C20.9078 18.2326 20.7205 17.4031 20.2368 16.7196C19.2382 15.3089 17.2689 14.9692 15.8491 15.9606Z" fill="#FFC372"></path><path d="M17.6724 13.0736C17.3567 13.0736 17.0385 13.0467 16.7202 12.9914C15.2768 12.7423 14.0182 11.9489 13.1758 10.7588C12.3334 9.56864 12.0067 8.12356 12.2583 6.69022C12.509 5.25603 13.3075 4.00553 14.5053 3.1685C16.9794 1.44161 20.4064 2.0329 22.1453 4.4903C23.885 6.9477 23.2882 10.352 20.815 12.0806C19.8806 12.7339 18.7908 13.0736 17.6715 13.0736H17.6724ZM17.6563 4.49617C17.0309 4.49617 16.3986 4.68068 15.8491 5.06481C15.1612 5.54539 14.7028 6.26332 14.5593 7.08692C14.415 7.91053 14.6024 8.74001 15.086 9.42271C15.5697 10.1071 16.2923 10.5625 17.1212 10.7051C17.9501 10.8502 18.7849 10.6632 19.4729 10.1817C20.8927 9.18955 21.2354 7.2337 20.2368 5.823C19.624 4.9583 18.6482 4.49533 17.6572 4.49533L17.6563 4.49617Z" fill="#FFC372"></path><path d="M6.68287 2.17896C8.40908 2.17896 10.1091 2.98411 11.1761 4.49042C12.0185 5.68054 12.3452 7.12562 12.0936 8.55981C11.8429 9.99315 11.0444 11.2445 9.84659 12.0815C7.37251 13.8092 3.94627 13.2163 2.20657 10.7597C1.36415 9.5696 1.03832 8.12452 1.28986 6.69034C1.54056 5.25699 2.33909 4.00565 3.53688 3.16862C4.4941 2.50018 5.59397 2.17896 6.68372 2.17896H6.68287ZM8.50277 10.1844C9.19072 9.7038 9.64907 8.98587 9.79257 8.16226C9.93691 7.33949 9.74952 6.50918 9.26585 5.82563C8.26642 4.4141 6.2988 4.07442 4.87901 5.06661C4.19106 5.54719 3.73271 6.26512 3.58837 7.08872C3.44403 7.91233 3.63142 8.7418 4.1151 9.42535C5.11368 10.836 7.08298 11.1757 8.50277 10.1844Z" fill="#FFC372"></path><path d="M6.67955 13.0703C6.99525 13.0703 7.31348 13.0972 7.63171 13.1525C9.07513 13.4016 10.3337 14.195 11.1761 15.3851C12.0185 16.5753 12.3452 18.0203 12.0937 19.4537C11.843 20.8879 11.0444 22.1384 9.84665 22.9754C7.37257 24.7023 3.94549 24.111 2.20662 21.6536C0.466915 19.1962 1.0637 15.7919 3.53694 14.0633C4.47137 13.41 5.56111 13.0703 6.6804 13.0703H6.67955ZM6.69559 21.6477C7.32108 21.6477 7.95331 21.4632 8.50283 21.0791C9.19078 20.5985 9.64913 19.8806 9.79263 19.057C9.93697 18.2334 9.74958 17.4039 9.2659 16.7212C8.78223 16.0368 8.05967 15.5814 7.23076 15.4388C6.40184 15.2937 5.56702 15.4807 4.87907 15.9622C3.45928 16.9543 3.11657 18.9102 4.11515 20.3209C4.72798 21.1856 5.70376 21.6486 6.69475 21.6486L6.69559 21.6477Z" fill="#FFC372"></path></svg> 