<?xml version="1.0" encoding="utf-8"?>
<!-- Generator: Adobe Illustrator 23.0.3, SVG Export Plug-In . SVG Version: 6.00 Build 0)  -->
<svg version="1.1" id="Layer_1" xmlns="http://www.w3.org/2000/svg" xmlns:xlink="http://www.w3.org/1999/xlink" x="0px" y="0px"
	 viewBox="0 0 257 70" style="enable-background:new 0 0 257 70;" xml:space="preserve">
<style type="text/css">
	.st0{fill:#008556;}
	.st1{fill:#FFCD00;stroke:#008556;stroke-width:0.3;stroke-miterlimit:10;}
</style>
<g>
	<g>
		<path class="st0" d="M131.6,26h9.2v-5.1c0-0.9-0.1-1.5-0.2-1.8c-0.1-0.2-0.3-0.4-0.6-0.6c-0.4-0.2-0.9-0.3-1.3-0.3H138v-0.5h8.4
			v0.5h-0.7c-0.5,0-0.9,0.1-1.3,0.3c-0.3,0.1-0.5,0.4-0.6,0.6c-0.1,0.3-0.2,0.9-0.2,1.8v11.6c0,0.9,0.1,1.5,0.2,1.8
			c0.1,0.2,0.3,0.4,0.6,0.6c0.4,0.2,0.9,0.3,1.3,0.3h0.7v0.5H138v-0.5h0.7c0.8,0,1.4-0.2,1.8-0.6c0.2-0.3,0.4-1,0.4-2V27h-9.2v5.5
			c0,0.9,0.1,1.5,0.2,1.8c0.1,0.2,0.3,0.4,0.6,0.6c0.4,0.2,0.9,0.3,1.3,0.3h0.7v0.5H126v-0.5h0.7c0.8,0,1.4-0.2,1.8-0.6
			c0.2-0.3,0.3-1,0.3-2V20.9c0-0.9-0.1-1.5-0.2-1.8c-0.1-0.2-0.3-0.4-0.6-0.6c-0.4-0.2-0.9-0.3-1.3-0.3H126v-0.5h8.5v0.5h-0.7
			c-0.5,0-0.9,0.1-1.3,0.3c-0.3,0.1-0.5,0.4-0.6,0.6c-0.1,0.3-0.2,0.9-0.2,1.8V26z"/>
		<path class="st0" d="M150,28.1c0,1.8,0.4,3.2,1.4,4.2c0.9,1,2,1.5,3.2,1.5c0.8,0,1.5-0.2,2.2-0.7c0.6-0.4,1.1-1.2,1.5-2.2l0.4,0.3
			c-0.2,1.2-0.8,2.3-1.7,3.3c-0.9,1-2.1,1.5-3.5,1.5c-1.5,0-2.8-0.6-3.9-1.7c-1.1-1.1-1.6-2.7-1.6-4.6c0-2.1,0.6-3.7,1.7-4.9
			c1.1-1.2,2.5-1.7,4.2-1.7c1.4,0,2.6,0.4,3.5,1.3c0.9,0.9,1.4,2.1,1.4,3.6H150z M150,27.3h5.8c0-0.8-0.1-1.3-0.3-1.6
			c-0.2-0.5-0.6-0.9-1-1.2c-0.5-0.3-0.9-0.4-1.4-0.4c-0.8,0-1.4,0.3-2,0.9C150.5,25.5,150.1,26.3,150,27.3z"/>
		<path class="st0" d="M167,33.9c-1.3,1-2.1,1.5-2.4,1.7c-0.5,0.2-1,0.3-1.6,0.3c-0.9,0-1.6-0.3-2.2-0.9c-0.6-0.6-0.8-1.3-0.8-2.3
			c0-0.6,0.1-1.1,0.4-1.5c0.4-0.6,1-1.2,2-1.7c0.9-0.5,2.5-1.2,4.6-1.9v-0.5c0-1.2-0.2-2-0.6-2.5c-0.4-0.4-1-0.7-1.7-0.7
			c-0.6,0-1,0.2-1.4,0.5c-0.3,0.3-0.5,0.6-0.5,1l0,0.8c0,0.4-0.1,0.7-0.3,0.9c-0.2,0.2-0.5,0.3-0.8,0.3c-0.3,0-0.6-0.1-0.8-0.3
			c-0.2-0.2-0.3-0.5-0.3-0.9c0-0.8,0.4-1.5,1.2-2.1c0.8-0.6,1.9-1,3.4-1c1.1,0,2,0.2,2.8,0.5c0.5,0.3,0.9,0.7,1.2,1.3
			c0.2,0.4,0.2,1.2,0.2,2.3v4.1c0,1.2,0,1.9,0.1,2.1c0,0.3,0.1,0.4,0.2,0.5c0.1,0.1,0.2,0.1,0.4,0.1c0.1,0,0.3,0,0.4-0.1
			c0.2-0.1,0.6-0.4,1.1-1v0.7c-1,1.3-2,2-2.9,2c-0.5,0-0.8-0.1-1.1-0.4C167.1,35.1,167,34.6,167,33.9z M167,33v-4.6
			c-1.4,0.5-2.3,0.9-2.7,1.1c-0.7,0.4-1.2,0.8-1.6,1.2c-0.3,0.4-0.5,0.9-0.5,1.4c0,0.6,0.2,1.2,0.6,1.6c0.4,0.4,0.8,0.6,1.4,0.6
			C164.9,34.3,165.9,33.9,167,33z"/>
		<path class="st0" d="M176.1,16.8v16.1c0,0.8,0.1,1.3,0.2,1.5c0.1,0.2,0.3,0.4,0.5,0.6c0.2,0.1,0.7,0.2,1.3,0.2v0.5H172v-0.5
			c0.6,0,1-0.1,1.2-0.2c0.2-0.1,0.4-0.3,0.5-0.6c0.1-0.3,0.2-0.8,0.2-1.5v-11c0-1.4,0-2.2-0.1-2.5c-0.1-0.3-0.2-0.5-0.3-0.6
			c-0.1-0.1-0.3-0.2-0.5-0.2c-0.2,0-0.5,0.1-0.9,0.2l-0.2-0.5l3.8-1.5H176.1z"/>
		<path class="st0" d="M182.7,19.5v4h2.9v0.9h-2.9v7.9c0,0.8,0.1,1.3,0.4,1.6c0.2,0.3,0.5,0.4,0.9,0.4c0.3,0,0.6-0.1,0.9-0.3
			c0.3-0.2,0.5-0.4,0.7-0.8h0.5c-0.3,0.9-0.8,1.5-1.4,2c-0.6,0.4-1.2,0.7-1.8,0.7c-0.4,0-0.8-0.1-1.2-0.3c-0.4-0.2-0.7-0.5-0.9-1
			c-0.2-0.4-0.3-1.1-0.3-1.9v-8.2h-2V24c0.5-0.2,1-0.5,1.5-1c0.5-0.5,1-1,1.4-1.6c0.2-0.3,0.5-0.9,0.9-1.8H182.7z"/>
		<path class="st0" d="M190,16.8v8.9c1-1.1,1.8-1.8,2.4-2.1c0.6-0.3,1.2-0.5,1.8-0.5c0.7,0,1.3,0.2,1.8,0.6c0.5,0.4,0.9,1,1.1,1.8
			c0.2,0.6,0.3,1.6,0.3,3.1v4.3c0,0.8,0.1,1.3,0.2,1.6c0.1,0.2,0.2,0.4,0.5,0.5c0.2,0.1,0.6,0.2,1.2,0.2v0.5h-6.2v-0.5h0.3
			c0.6,0,1-0.1,1.2-0.3c0.2-0.2,0.4-0.4,0.5-0.8c0-0.1,0-0.6,0-1.2v-4.3c0-1.3-0.1-2.2-0.2-2.6c-0.1-0.4-0.4-0.7-0.7-0.9
			c-0.3-0.2-0.7-0.3-1.1-0.3c-0.4,0-0.9,0.1-1.4,0.3c-0.5,0.2-1.1,0.7-1.7,1.4v6.4c0,0.8,0,1.3,0.1,1.5c0.1,0.2,0.3,0.4,0.5,0.5
			c0.3,0.1,0.7,0.2,1.4,0.2v0.5h-6.3v-0.5c0.6,0,1-0.1,1.3-0.3c0.2-0.1,0.3-0.3,0.4-0.5c0.1-0.2,0.2-0.8,0.2-1.5v-11
			c0-1.4,0-2.2-0.1-2.6c-0.1-0.3-0.2-0.5-0.3-0.6c-0.1-0.1-0.3-0.2-0.6-0.2c-0.2,0-0.5,0.1-0.9,0.2l-0.2-0.5l3.8-1.5H190z"/>
		<path class="st0" d="M223.6,17.3l0.4,6.1h-0.4c-0.6-1.8-1.4-3.1-2.4-3.9c-1.1-0.8-2.3-1.2-3.8-1.2c-1.2,0-2.4,0.3-3.4,0.9
			c-1,0.6-1.8,1.6-2.4,2.9c-0.6,1.3-0.9,3-0.9,4.9c0,1.6,0.3,3,0.8,4.2c0.5,1.2,1.4,2.1,2.4,2.7c1.1,0.6,2.3,1,3.7,1
			c1.2,0,2.3-0.2,3.2-0.7c0.9-0.5,1.9-1.5,3.1-3l0.4,0.3c-0.9,1.6-2,2.8-3.3,3.5c-1.2,0.7-2.7,1.1-4.4,1.1c-3.1,0-5.5-1.1-7.2-3.3
			c-1.3-1.6-1.9-3.6-1.9-5.8c0-1.8,0.4-3.4,1.3-4.9c0.8-1.5,2-2.7,3.4-3.5c1.5-0.8,3.1-1.2,4.8-1.2c1.3,0,2.7,0.3,4,1
			c0.4,0.2,0.7,0.3,0.8,0.3c0.2,0,0.5-0.1,0.6-0.3c0.2-0.2,0.4-0.6,0.5-1H223.6z"/>
		<path class="st0" d="M232.8,34c-1.2,0.9-1.9,1.4-2.2,1.6c-0.5,0.2-0.9,0.3-1.5,0.3c-0.8,0-1.5-0.3-2-0.8c-0.5-0.5-0.8-1.2-0.8-2.1
			c0-0.6,0.1-1,0.4-1.4c0.3-0.6,0.9-1.1,1.8-1.6c0.9-0.5,2.3-1.1,4.3-1.8v-0.4c0-1.1-0.2-1.9-0.6-2.3c-0.4-0.4-0.9-0.6-1.6-0.6
			c-0.5,0-1,0.1-1.3,0.4c-0.3,0.3-0.5,0.6-0.5,1l0,0.7c0,0.4-0.1,0.7-0.3,0.9c-0.2,0.2-0.5,0.3-0.8,0.3c-0.3,0-0.6-0.1-0.8-0.3
			c-0.2-0.2-0.3-0.5-0.3-0.9c0-0.7,0.4-1.4,1.1-2c0.7-0.6,1.8-0.9,3.1-0.9c1,0,1.9,0.2,2.5,0.5c0.5,0.3,0.9,0.7,1.1,1.2
			c0.2,0.4,0.2,1.1,0.2,2.2v3.9c0,1.1,0,1.8,0.1,2c0,0.2,0.1,0.4,0.2,0.5c0.1,0.1,0.2,0.1,0.3,0.1c0.1,0,0.3,0,0.4-0.1
			c0.2-0.1,0.5-0.4,1-0.9V34c-0.9,1.2-1.9,1.9-2.7,1.9c-0.4,0-0.7-0.1-1-0.4C233,35.1,232.8,34.6,232.8,34z M232.8,33.2v-4.3
			c-1.3,0.5-2.1,0.9-2.5,1.1c-0.7,0.4-1.1,0.7-1.4,1.1c-0.3,0.4-0.4,0.8-0.4,1.3c0,0.6,0.2,1.1,0.5,1.5c0.4,0.4,0.8,0.6,1.3,0.6
			C230.9,34.4,231.8,34,232.8,33.2z"/>
		<path class="st0" d="M241.2,23.9v2.6c1-1.7,2-2.6,3-2.6c0.5,0,0.9,0.1,1.2,0.4c0.3,0.3,0.5,0.6,0.5,1c0,0.3-0.1,0.6-0.3,0.8
			c-0.2,0.2-0.5,0.3-0.8,0.3c-0.3,0-0.6-0.1-1-0.4c-0.4-0.3-0.6-0.4-0.8-0.4c-0.2,0-0.3,0.1-0.5,0.2c-0.4,0.3-0.8,0.9-1.2,1.7v5.5
			c0,0.6,0.1,1.1,0.2,1.4c0.1,0.2,0.3,0.4,0.6,0.6c0.3,0.1,0.7,0.2,1.2,0.2v0.4h-6v-0.4c0.6,0,1-0.1,1.3-0.3
			c0.2-0.1,0.4-0.3,0.4-0.6c0-0.1,0.1-0.5,0.1-1.2v-4.4c0-1.3,0-2.1-0.1-2.4c-0.1-0.3-0.2-0.4-0.3-0.6c-0.1-0.1-0.3-0.2-0.6-0.2
			c-0.3,0-0.6,0.1-0.9,0.2l-0.1-0.4l3.5-1.4H241.2z"/>
		<path class="st0" d="M248.4,28.5c0,1.7,0.4,3,1.3,4c0.8,1,1.8,1.4,3,1.4c0.8,0,1.4-0.2,2-0.6c0.6-0.4,1-1.1,1.4-2.1l0.4,0.2
			c-0.2,1.1-0.7,2.2-1.6,3.1c-0.9,0.9-1.9,1.4-3.2,1.4c-1.4,0-2.6-0.5-3.6-1.6c-1-1.1-1.5-2.5-1.5-4.3c0-2,0.5-3.5,1.5-4.6
			c1-1.1,2.3-1.6,3.8-1.6c1.3,0,2.4,0.4,3.2,1.3c0.8,0.8,1.3,2,1.3,3.4H248.4z M248.4,27.8h5.4c0-0.7-0.1-1.2-0.3-1.5
			c-0.2-0.5-0.5-0.8-0.9-1.1c-0.4-0.3-0.9-0.4-1.3-0.4c-0.7,0-1.3,0.3-1.9,0.8C248.8,26.1,248.5,26.8,248.4,27.8z"/>
	</g>
	<g>
		<path class="st0" d="M46.4,55h-0.1c-0.3,0-0.5,0-0.7,0c-0.2,0-0.3,0.1-0.4,0.1c-0.1,0.1-0.2,0.2-0.2,0.3c-0.1,0.1-0.1,0.4-0.2,0.6
			l-2.1,7.6c0,0.1-0.1,0.3-0.1,0.4c0,0.5,0.3,0.7,0.9,0.7H44L44,65.2h-4.7l0.1-0.3h0.4c0.3,0,0.5,0,0.6-0.1c0.1,0,0.3-0.1,0.4-0.2
			c0,0,0.1-0.1,0.1-0.1c0,0,0.1-0.1,0.1-0.2c0-0.1,0.1-0.2,0.1-0.3c0-0.1,0.1-0.3,0.2-0.6l2-7.5l-6.5,9.3h-0.5L35.8,57l-2.6,6.5
			C33.1,63.7,33,63.9,33,64c0,0.2-0.1,0.3-0.1,0.4c0,0.2,0.1,0.3,0.2,0.4c0.1,0.1,0.4,0.1,0.9,0.1h0.2l-0.1,0.3h-3.5l0.1-0.3h0.4
			c0.2,0,0.3,0,0.4,0c0.1,0,0.2-0.1,0.3-0.2c0.1-0.1,0.2-0.2,0.2-0.3c0.1-0.1,0.2-0.3,0.2-0.5l3.3-7.9c0-0.1,0.1-0.2,0.1-0.3
			c0-0.3-0.1-0.5-0.4-0.5c0,0-0.1,0-0.1,0c0,0-0.1,0-0.1,0c-0.1,0-0.1,0-0.2,0s-0.2,0-0.4,0H34l0.1-0.3h3.1l0.5,8.4l5.8-8.4h3
			L46.4,55z"/>
		<path class="st0" d="M45.2,60.4c0.3-1.4,0.8-2.1,1.5-2.1c0.5,0,0.8,0.4,1.1,1.2c0.2,0.8,0.3,2,0.3,3.7c0,0.1,0,0.2,0,0.3
			c0,0.1,0,0.1,0,0.2c0,0.1,0,0.2,0,0.2c0,0.1,0,0.2,0,0.4c0.1-0.2,0.2-0.3,0.3-0.4c0.1-0.1,0.2-0.2,0.2-0.4
			c0.1-0.1,0.2-0.3,0.2-0.4c0.1-0.2,0.2-0.3,0.3-0.6c0.1-0.3,0.3-0.6,0.4-0.9c0.1-0.3,0.2-0.5,0.3-0.7c0.1-0.2,0.1-0.4,0.1-0.6
			c0-0.2,0-0.3,0-0.5c0-0.1,0-0.1,0-0.2c0,0,0-0.1,0-0.1c0,0-0.1-0.1-0.1-0.2c-0.1-0.1-0.1-0.2-0.2-0.3c-0.1-0.1-0.1-0.1-0.1-0.2
			c0-0.1-0.1-0.2-0.1-0.2c0-0.1,0.1-0.2,0.2-0.3c0.1-0.1,0.2-0.1,0.4-0.1c0.3,0,0.5,0.1,0.6,0.3c0.2,0.2,0.2,0.5,0.2,0.9
			c0,0.4-0.1,0.9-0.3,1.5c-0.2,0.6-0.5,1.3-1,2.2c-0.7,1.3-1.3,2.3-1.9,3.2c-0.6,0.8-1.1,1.5-1.7,1.9c-0.5,0.4-0.9,0.7-1.4,0.9
			c-0.5,0.2-0.9,0.3-1.3,0.3c-0.3,0-0.5-0.1-0.7-0.2c-0.2-0.1-0.3-0.2-0.3-0.4c0-0.1,0.1-0.2,0.2-0.3c0.1-0.1,0.3-0.2,0.5-0.2
			c0.1,0,0.1,0,0.1,0c0,0,0.1,0,0.1,0c0.1,0,0.1,0,0.2,0.1c0.1,0,0.2,0.1,0.3,0.1c0.1,0,0.2,0.1,0.3,0.1c0.1,0,0.3,0,0.4-0.1
			c0.2-0.1,0.3-0.1,0.5-0.3c0.2-0.1,0.3-0.2,0.5-0.4c0.2-0.1,0.3-0.3,0.5-0.5c0.2-0.2,0.4-0.5,0.5-0.8c0.1-0.3,0.3-0.6,0.4-0.9
			c0.1-0.3,0.2-0.7,0.2-1.1c0-0.4,0.1-0.8,0.1-1.3c0-0.3,0-0.6,0-1c0-0.4-0.1-0.7-0.1-1.1c0-0.4-0.1-0.7-0.1-1.1
			c0-0.3-0.1-0.7-0.2-1c-0.1-0.3-0.2-0.5-0.3-0.5c-0.1,0-0.3,0.1-0.4,0.4c-0.1,0.3-0.2,0.7-0.3,1.2L45.2,60.4z"/>
		<path class="st0" d="M65.8,56.9h-0.4c0-0.6-0.2-1.1-0.6-1.5c-0.2-0.2-0.4-0.3-0.6-0.4C63.9,55,63.5,55,63,55h-2.3l-1.5,4.4h2.1
			c0.2,0,0.5,0,0.6-0.1c0.2-0.1,0.3-0.1,0.5-0.3c0.1-0.1,0.2-0.3,0.4-0.5c0.1-0.2,0.2-0.5,0.3-0.8h0.5l-1.4,4.1h-0.5
			c0.1-0.2,0.2-0.5,0.2-0.7c0-0.2,0.1-0.4,0.1-0.6c0-0.3-0.1-0.6-0.2-0.7c-0.2-0.1-0.5-0.2-0.9-0.2h-1.7l-1.2,3.6
			c0,0.1-0.1,0.3-0.1,0.4c0,0.1,0,0.2,0,0.3c0,0.4,0.3,0.6,0.9,0.6h0.5L59,65.2h-4.7l0.1-0.3h0.6c0.5,0,0.8-0.2,1-0.5
			c0-0.1,0.1-0.2,0.1-0.2c0-0.1,0.1-0.3,0.2-0.5l2.4-7.2c0.1-0.2,0.1-0.3,0.1-0.4c0-0.1,0-0.2,0-0.3c0-0.2-0.1-0.4-0.2-0.5
			C58.6,55.1,58.3,55,58,55h-0.5l0.1-0.3h8.1L65.8,56.9z"/>
		<path class="st0" d="M69.8,63.7c-0.3,0.6-0.7,1-1.1,1.3c-0.4,0.3-0.7,0.5-1.1,0.5c-0.3,0-0.5-0.1-0.7-0.3
			c-0.2-0.2-0.3-0.4-0.3-0.7v0l0-0.1v-0.2c-0.4,0.5-0.8,0.8-1.2,1c-0.3,0.2-0.7,0.3-1,0.3c-0.4,0-0.8-0.2-1-0.5
			c-0.3-0.3-0.4-0.7-0.4-1.2c0-0.3,0-0.6,0.1-1c0.1-0.3,0.2-0.7,0.4-1c0.2-0.4,0.4-0.7,0.6-1c0.2-0.3,0.5-0.7,0.7-1
			c0.8-0.9,1.7-1.4,2.5-1.4c0.2,0,0.4,0,0.5,0.1c0.1,0.1,0.2,0.2,0.3,0.4l0.1-0.3h1.2l-1.8,5.7c0,0.1,0,0.2,0,0.3
			c0,0.2,0.1,0.4,0.3,0.4c0.2,0,0.4-0.1,0.7-0.4c0.3-0.2,0.5-0.6,0.8-1L69.8,63.7z M67.4,58.7c-0.3,0-0.6,0.2-1,0.5
			c-0.3,0.3-0.7,0.8-1.1,1.5c-0.3,0.6-0.6,1.2-0.8,1.8c-0.2,0.6-0.3,1.1-0.3,1.5c0,0.6,0.2,1,0.6,1c0.3,0,0.7-0.2,1.1-0.6
			c0.4-0.4,0.7-1,1-1.7c0.3-0.8,0.6-1.5,0.8-2.1c0.2-0.6,0.3-1,0.3-1.2c0-0.2-0.1-0.3-0.2-0.4C67.7,58.7,67.6,58.7,67.4,58.7z"/>
		<path class="st0" d="M69.7,60.3c0.6-1.3,1.3-2,2-2c0.3,0,0.5,0.1,0.6,0.2c0.1,0.2,0.2,0.4,0.2,0.6c0,0.1,0,0.2,0,0.3
			c0,0.1,0,0.2-0.1,0.4l-0.1,0.3c0.4-0.7,0.8-1.2,1.2-1.5c0.3-0.3,0.7-0.4,1.1-0.4c0.4,0,0.7,0.1,0.9,0.3c0.2,0.2,0.3,0.5,0.3,0.8
			c0,0.1,0,0.1,0,0.2c0,0,0,0.2,0,0.4c0.4-0.6,0.8-1.1,1.2-1.3c0.4-0.3,0.8-0.4,1.2-0.4c0.4,0,0.7,0.1,0.9,0.3
			c0.3,0.2,0.4,0.4,0.4,0.7c0,0.2-0.1,0.5-0.2,0.9L78,64c-0.1,0.2-0.1,0.3-0.1,0.3c0,0,0,0.1,0,0.2c0,0.3,0.1,0.4,0.3,0.4
			c0.2,0,0.4-0.1,0.6-0.4c0.2-0.3,0.5-0.6,0.7-1.1l0.4,0.3c-0.6,1.2-1.3,1.8-2.1,1.8c-0.3,0-0.5-0.1-0.7-0.3
			c-0.2-0.2-0.3-0.4-0.3-0.7c0-0.1,0-0.1,0-0.2c0,0,0-0.1,0-0.2c0-0.1,0-0.1,0.1-0.2c0-0.1,0.1-0.2,0.1-0.4l1.1-3.6
			c0.1-0.2,0.1-0.3,0.1-0.4c0-0.1,0-0.2,0-0.3c0-0.3-0.1-0.5-0.4-0.5c-0.5,0-0.9,0.3-1.4,0.9c-0.5,0.6-0.9,1.5-1.2,2.6l-0.9,2.9
			h-1.2l1.6-5.3c0.1-0.2,0.1-0.4,0.1-0.6c0-0.3-0.2-0.5-0.5-0.5c-0.4,0-0.9,0.3-1.3,0.9c-0.4,0.6-0.8,1.5-1.2,2.6L71,65.2h-1.2
			l1.4-4.5c0.1-0.2,0.1-0.4,0.2-0.5c0-0.1,0.1-0.3,0.1-0.4c0-0.1,0-0.2,0-0.2c0-0.1,0-0.1,0-0.2c0-0.2-0.1-0.3-0.3-0.3
			c-0.3,0-0.7,0.5-1.2,1.4L69.7,60.3z"/>
		<path class="st0" d="M83.6,63.7c-0.3,0.6-0.6,1-1,1.3c-0.4,0.3-0.7,0.5-1.1,0.5c-0.3,0-0.5-0.1-0.7-0.2c-0.2-0.2-0.3-0.3-0.3-0.5
			c0-0.1,0-0.2,0-0.3c0-0.1,0.1-0.3,0.1-0.5l1.3-4c0-0.1,0.1-0.3,0.1-0.4c0-0.1,0-0.2,0-0.2c0-0.2-0.1-0.3-0.2-0.3
			c-0.2,0-0.3,0.1-0.5,0.3c-0.1,0.2-0.3,0.5-0.5,1.1l-0.5-0.1c0.3-0.7,0.7-1.2,1-1.5c0.3-0.3,0.7-0.4,1.1-0.4c0.3,0,0.5,0.1,0.7,0.2
			c0.2,0.1,0.3,0.3,0.3,0.5c0,0.2-0.1,0.4-0.2,0.8L81.9,64c0,0.1-0.1,0.2-0.1,0.3c0,0.1,0,0.1,0,0.2c0,0.2,0.1,0.4,0.3,0.4
			c0.2,0,0.4-0.1,0.5-0.3c0.2-0.2,0.4-0.5,0.6-1.1L83.6,63.7z M83.7,55.1c0.2,0,0.4,0.1,0.6,0.2c0.2,0.2,0.2,0.3,0.2,0.5
			c0,0.2-0.1,0.4-0.3,0.5c-0.2,0.2-0.4,0.2-0.6,0.2c-0.2,0-0.4-0.1-0.6-0.2c-0.2-0.2-0.2-0.3-0.2-0.5c0-0.2,0.1-0.4,0.3-0.5
			C83.3,55.2,83.5,55.1,83.7,55.1z"/>
		<path class="st0" d="M86.1,54.3c0.3,0,0.6,0,0.8,0c0.2,0,0.4,0,0.6,0c0.2,0,0.3,0,0.5-0.1c0.2,0,0.3-0.1,0.5-0.1l0.1,0.1l-2.9,9.2
			c-0.1,0.3-0.2,0.5-0.2,0.7c0,0.1,0,0.3,0,0.4c0,0.3,0.1,0.4,0.4,0.4c0.5,0,1-0.5,1.5-1.6l0.4,0.2c-0.4,0.7-0.8,1.3-1.1,1.6
			c-0.4,0.3-0.8,0.5-1.2,0.5c-0.3,0-0.6-0.1-0.8-0.3c-0.2-0.2-0.3-0.4-0.3-0.7c0-0.1,0-0.3,0.1-0.5c0-0.2,0.1-0.4,0.2-0.7l2.5-7.9
			c0-0.1,0.1-0.2,0.1-0.3c0-0.2,0-0.3-0.1-0.3c-0.1-0.1-0.2-0.1-0.5-0.1H86L86.1,54.3z"/>
		<path class="st0" d="M87.8,60.4c0.3-1.4,0.8-2.1,1.4-2.1c0.5,0,0.8,0.4,1,1.2c0.2,0.8,0.3,2,0.3,3.7c0,0.1,0,0.2,0,0.3
			c0,0.1,0,0.1,0,0.2c0,0.1,0,0.2,0,0.2c0,0.1,0,0.2,0,0.4c0.1-0.2,0.2-0.3,0.3-0.4c0.1-0.1,0.2-0.2,0.2-0.4
			c0.1-0.1,0.1-0.3,0.2-0.4c0.1-0.2,0.2-0.3,0.3-0.6c0.1-0.3,0.3-0.6,0.4-0.9c0.1-0.3,0.2-0.5,0.2-0.7c0.1-0.2,0.1-0.4,0.1-0.6
			c0-0.2,0-0.3,0-0.5c0-0.1,0-0.1,0-0.2c0,0,0-0.1,0-0.1c0,0-0.1-0.1-0.1-0.2c-0.1-0.1-0.1-0.2-0.2-0.3c-0.1-0.1-0.1-0.1-0.1-0.2
			c0-0.1,0-0.2,0-0.2c0-0.1,0-0.2,0.1-0.3c0.1-0.1,0.2-0.1,0.3-0.1c0.2,0,0.4,0.1,0.6,0.3c0.1,0.2,0.2,0.5,0.2,0.9
			c0,0.4-0.1,0.9-0.3,1.5c-0.2,0.6-0.5,1.3-0.9,2.2c-0.6,1.3-1.2,2.3-1.7,3.2c-0.5,0.8-1.1,1.5-1.6,1.9c-0.4,0.4-0.9,0.7-1.3,0.9
			c-0.5,0.2-0.9,0.3-1.2,0.3c-0.2,0-0.4-0.1-0.6-0.2C85.1,69.3,85,69.2,85,69c0-0.1,0.1-0.2,0.2-0.3c0.1-0.1,0.3-0.2,0.4-0.2
			c0.1,0,0.1,0,0.1,0c0,0,0.1,0,0.1,0c0,0,0.1,0,0.2,0.1c0.1,0,0.2,0.1,0.3,0.1c0.1,0,0.2,0.1,0.3,0.1c0.1,0,0.3,0,0.4-0.1
			c0.2-0.1,0.3-0.1,0.5-0.3c0.2-0.1,0.3-0.2,0.5-0.4c0.2-0.1,0.3-0.3,0.5-0.5c0.2-0.2,0.4-0.5,0.5-0.8c0.1-0.3,0.3-0.6,0.3-0.9
			c0.1-0.3,0.1-0.7,0.2-1.1c0-0.4,0.1-0.8,0.1-1.3c0-0.3,0-0.6,0-1c0-0.4,0-0.7-0.1-1.1c0-0.4-0.1-0.7-0.1-1.1c0-0.3-0.1-0.7-0.1-1
			C89.1,59.2,89,59,88.9,59c-0.1,0-0.3,0.1-0.4,0.4c-0.1,0.3-0.2,0.7-0.3,1.2L87.8,60.4z"/>
		<path class="st0" d="M93.3,63.8c0.2,0,0.5,0.1,0.6,0.2c0.2,0.2,0.3,0.3,0.3,0.6c0,0.2-0.1,0.4-0.3,0.6c-0.2,0.2-0.4,0.2-0.6,0.2
			c-0.3,0-0.5-0.1-0.7-0.2c-0.2-0.2-0.3-0.3-0.3-0.6c0-0.2,0.1-0.4,0.3-0.6C92.9,63.9,93.1,63.8,93.3,63.8z"/>
		<path class="st0" d="M115.1,55H115c-0.3,0-0.5,0-0.7,0c-0.2,0-0.3,0.1-0.4,0.1c-0.1,0.1-0.2,0.2-0.2,0.3c-0.1,0.1-0.1,0.4-0.2,0.6
			l-2.1,7.6c0,0.1-0.1,0.3-0.1,0.4c0,0.5,0.3,0.7,0.9,0.7h0.5l-0.1,0.3H108l0.1-0.3h0.4c0.3,0,0.5,0,0.6-0.1c0.1,0,0.3-0.1,0.4-0.2
			c0,0,0.1-0.1,0.1-0.1c0,0,0.1-0.1,0.1-0.2c0-0.1,0.1-0.2,0.1-0.3c0-0.1,0.1-0.3,0.2-0.6l2-7.5l-6.5,9.3H105l-0.5-8.2l-2.6,6.5
			c-0.1,0.2-0.1,0.3-0.2,0.5c0,0.2-0.1,0.3-0.1,0.4c0,0.2,0.1,0.3,0.2,0.4c0.1,0.1,0.4,0.1,0.9,0.1h0.2l-0.1,0.3h-3.5l0.1-0.3h0.4
			c0.2,0,0.3,0,0.4,0c0.1,0,0.2-0.1,0.3-0.2c0.1-0.1,0.2-0.2,0.2-0.3c0.1-0.1,0.2-0.3,0.2-0.5l3.2-7.9c0-0.1,0.1-0.2,0.1-0.3
			c0-0.3-0.1-0.5-0.4-0.5c0,0-0.1,0-0.1,0c0,0-0.1,0-0.1,0c-0.1,0-0.1,0-0.2,0c-0.1,0-0.2,0-0.4,0h-0.4l0.1-0.3h3.1l0.5,8.4l5.8-8.4
			h3L115.1,55z"/>
		<path class="st0" d="M113.9,60.4c0.3-1.4,0.8-2.1,1.5-2.1c0.5,0,0.8,0.4,1.1,1.2c0.2,0.8,0.3,2,0.3,3.7c0,0.1,0,0.2,0,0.3
			c0,0.1,0,0.1,0,0.2c0,0.1,0,0.2,0,0.2c0,0.1,0,0.2,0,0.4c0.1-0.2,0.2-0.3,0.3-0.4c0.1-0.1,0.2-0.2,0.2-0.4
			c0.1-0.1,0.2-0.3,0.2-0.4c0.1-0.2,0.2-0.3,0.3-0.6c0.1-0.3,0.3-0.6,0.4-0.9c0.1-0.3,0.2-0.5,0.3-0.7c0.1-0.2,0.1-0.4,0.1-0.6
			c0-0.2,0-0.3,0-0.5c0-0.1,0-0.1,0-0.2c0,0,0-0.1,0-0.1c0,0-0.1-0.1-0.1-0.2c-0.1-0.1-0.1-0.2-0.2-0.3c-0.1-0.1-0.1-0.1-0.1-0.2
			c0-0.1-0.1-0.2-0.1-0.2c0-0.1,0.1-0.2,0.2-0.3c0.1-0.1,0.2-0.1,0.4-0.1c0.3,0,0.5,0.1,0.6,0.3c0.2,0.2,0.2,0.5,0.2,0.9
			c0,0.4-0.1,0.9-0.3,1.5c-0.2,0.6-0.5,1.3-1,2.2c-0.7,1.3-1.3,2.3-1.9,3.2c-0.6,0.8-1.1,1.5-1.7,1.9c-0.5,0.4-0.9,0.7-1.4,0.9
			c-0.5,0.2-0.9,0.3-1.3,0.3c-0.3,0-0.5-0.1-0.7-0.2c-0.2-0.1-0.3-0.2-0.3-0.4c0-0.1,0.1-0.2,0.2-0.3c0.1-0.1,0.3-0.2,0.5-0.2
			c0.1,0,0.1,0,0.1,0c0,0,0.1,0,0.1,0c0.1,0,0.1,0,0.2,0.1c0.1,0,0.2,0.1,0.3,0.1c0.1,0,0.2,0.1,0.3,0.1c0.1,0,0.3,0,0.4-0.1
			c0.2-0.1,0.3-0.1,0.5-0.3c0.2-0.1,0.3-0.2,0.5-0.4c0.2-0.1,0.3-0.3,0.5-0.5c0.2-0.2,0.4-0.5,0.5-0.8c0.1-0.3,0.3-0.6,0.4-0.9
			c0.1-0.3,0.2-0.7,0.2-1.1c0-0.4,0.1-0.8,0.1-1.3c0-0.3,0-0.6,0-1c0-0.4-0.1-0.7-0.1-1.1c0-0.4-0.1-0.7-0.1-1.1
			c0-0.3-0.1-0.7-0.2-1c-0.1-0.3-0.2-0.5-0.3-0.5c-0.1,0-0.3,0.1-0.4,0.4c-0.1,0.3-0.2,0.7-0.3,1.2L113.9,60.4z"/>
		<path class="st0" d="M122.9,64.9h0.5c0.2,0,0.4,0,0.5,0c0.1,0,0.3-0.1,0.3-0.1c0.1-0.1,0.2-0.2,0.2-0.3c0.1-0.1,0.1-0.3,0.2-0.5
			l0.1-0.3l2.4-7.2c0.1-0.3,0.2-0.5,0.2-0.7c0-0.2-0.1-0.4-0.2-0.5c-0.1-0.1-0.4-0.1-0.7-0.1h-0.6l0.1-0.4h4.2
			c0.7,0,1.3,0.1,1.8,0.2c0.5,0.1,1,0.3,1.4,0.6c0.5,0.4,0.9,0.9,1.2,1.5c0.3,0.6,0.4,1.3,0.4,2c0,0.5-0.1,1.1-0.2,1.6
			c-0.1,0.5-0.4,1-0.6,1.5c-0.3,0.5-0.6,0.9-1,1.3c-0.4,0.4-0.8,0.7-1.3,1c-0.5,0.3-1.1,0.5-1.7,0.7c-0.6,0.1-1.3,0.2-2.2,0.2
			l-1.1,0l-4,0L122.9,64.9z M126.2,63.6c-0.1,0.2-0.1,0.4-0.1,0.6c0,0.2,0.1,0.4,0.4,0.5c0.2,0.1,0.7,0.2,1.2,0.2
			c1.4,0,2.5-0.4,3.3-1.1c0.3-0.3,0.6-0.7,0.9-1.1c0.3-0.4,0.5-0.8,0.7-1.3c0.2-0.5,0.3-0.9,0.4-1.4c0.1-0.5,0.1-1,0.1-1.5
			c0-0.8-0.1-1.5-0.4-2.1c-0.3-0.6-0.7-0.9-1.3-1.1c-0.2-0.1-0.3-0.1-0.5-0.1c-0.1,0-0.3-0.1-0.5-0.1c-0.2,0-0.4,0-0.6,0
			c-0.2,0-0.5,0-0.8,0L126.2,63.6z"/>
		<path class="st0" d="M138.2,58.3c0.6,0,1,0.2,1.4,0.6c0.3,0.4,0.5,0.9,0.5,1.6c0,0.6-0.1,1.2-0.3,1.8c-0.2,0.6-0.5,1.1-0.8,1.6
			c-0.3,0.5-0.8,0.8-1.2,1.1c-0.5,0.3-0.9,0.4-1.4,0.4c-0.6,0-1-0.2-1.4-0.6c-0.3-0.4-0.5-1-0.5-1.7c0-0.6,0.1-1.2,0.3-1.8
			c0.2-0.6,0.5-1.1,0.8-1.5c0.3-0.4,0.7-0.8,1.2-1.1C137.2,58.4,137.7,58.3,138.2,58.3z M138.2,58.8c-0.4,0-0.7,0.2-1,0.5
			c-0.3,0.3-0.6,0.8-0.9,1.5c-0.3,0.6-0.5,1.2-0.6,1.7c-0.1,0.5-0.2,1-0.2,1.4c0,0.7,0.3,1.1,0.8,1.1c0.3,0,0.7-0.2,1-0.5
			c0.3-0.3,0.6-0.9,0.9-1.6c0.1-0.2,0.2-0.5,0.3-0.8c0.1-0.3,0.2-0.6,0.2-0.9c0.1-0.3,0.1-0.6,0.2-0.8c0-0.3,0.1-0.5,0.1-0.7
			c0-0.3-0.1-0.5-0.2-0.7C138.6,58.8,138.4,58.8,138.2,58.8z"/>
		<path class="st0" d="M145,63.2c-0.3,0.7-0.7,1.2-1.2,1.6c-0.5,0.4-0.9,0.6-1.4,0.6c-0.5,0-1-0.2-1.3-0.5c-0.3-0.4-0.5-0.8-0.5-1.4
			c0-0.6,0.1-1.2,0.4-1.8c0.3-0.6,0.6-1.2,1-1.7c0.4-0.5,0.9-0.9,1.4-1.2c0.5-0.3,1-0.5,1.5-0.5c0.3,0,0.6,0.1,0.8,0.3
			c0.2,0.2,0.3,0.4,0.3,0.6c0,0.2-0.1,0.3-0.2,0.5c-0.1,0.1-0.3,0.2-0.4,0.2c-0.1,0-0.2,0-0.3-0.1c-0.1-0.1-0.2-0.2-0.2-0.3
			c0,0,0-0.1,0.1-0.2c0-0.1,0.1-0.1,0.1-0.2c0-0.2-0.1-0.3-0.3-0.3c-0.3,0-0.5,0.1-0.8,0.4c-0.3,0.3-0.6,0.7-0.9,1.4
			c-0.3,0.7-0.6,1.3-0.8,1.9c-0.2,0.6-0.3,1.1-0.3,1.6c0,0.6,0.2,0.9,0.7,0.9c0.4,0,0.7-0.2,1.1-0.5c0.3-0.3,0.7-0.8,0.9-1.4
			L145,63.2z"/>
		<path class="st0" d="M150,59h-1.2l-1.7,4.9c-0.1,0.2-0.1,0.4-0.1,0.5c0,0.3,0.1,0.4,0.4,0.4c0.5,0,1-0.6,1.6-1.8l0.5,0.2
			c-0.7,1.4-1.6,2.2-2.6,2.2c-0.3,0-0.6-0.1-0.8-0.2c-0.2-0.2-0.3-0.4-0.3-0.6c0-0.1,0-0.3,0.1-0.4c0-0.1,0.1-0.4,0.2-0.6l1.5-4.5
			h-1.2l0.1-0.4h1.2l0.8-2.3h1.3l-0.8,2.3h1.2L150,59z"/>
		<path class="st0" d="M153,58.3c0.6,0,1,0.2,1.4,0.6c0.3,0.4,0.5,0.9,0.5,1.6c0,0.6-0.1,1.2-0.3,1.8c-0.2,0.6-0.5,1.1-0.8,1.6
			c-0.3,0.5-0.8,0.8-1.2,1.1c-0.5,0.3-0.9,0.4-1.4,0.4c-0.6,0-1-0.2-1.4-0.6c-0.3-0.4-0.5-1-0.5-1.7c0-0.6,0.1-1.2,0.3-1.8
			c0.2-0.6,0.5-1.1,0.8-1.5c0.3-0.4,0.7-0.8,1.2-1.1C152,58.4,152.5,58.3,153,58.3z M153,58.8c-0.4,0-0.7,0.2-1,0.5
			c-0.3,0.3-0.6,0.8-0.9,1.5c-0.3,0.6-0.5,1.2-0.6,1.7c-0.1,0.5-0.2,1-0.2,1.4c0,0.7,0.3,1.1,0.8,1.1c0.3,0,0.7-0.2,1-0.5
			c0.3-0.3,0.6-0.9,0.9-1.6c0.1-0.2,0.2-0.5,0.3-0.8c0.1-0.3,0.2-0.6,0.2-0.9c0.1-0.3,0.1-0.6,0.2-0.8c0-0.3,0.1-0.5,0.1-0.7
			c0-0.3-0.1-0.5-0.2-0.7C153.4,58.8,153.2,58.8,153,58.8z"/>
		<path class="st0" d="M155.6,65.2l1-3.4c0.2-0.7,0.3-1.2,0.4-1.6c0.1-0.4,0.1-0.7,0.1-0.9c0-0.3-0.1-0.4-0.3-0.4s-0.4,0.1-0.6,0.4
			c-0.2,0.3-0.4,0.7-0.6,1.1h-0.5c0.2-0.7,0.5-1.2,0.8-1.6c0.3-0.4,0.6-0.6,1-0.6c0.6,0,0.9,0.4,0.9,1.2c0,0.1,0,0.2,0,0.3
			c0,0.1,0,0.2,0,0.2c0,0.1,0,0.2-0.1,0.4c0,0.2-0.1,0.4-0.1,0.6c0.1-0.3,0.2-0.5,0.3-0.6c0.1-0.2,0.1-0.3,0.2-0.4
			c0.1-0.1,0.1-0.2,0.2-0.3c0.1-0.1,0.2-0.2,0.3-0.4c0.3-0.4,0.5-0.6,0.7-0.8c0.2-0.2,0.4-0.2,0.7-0.2c0.2,0,0.4,0.1,0.5,0.2
			c0.1,0.1,0.2,0.3,0.2,0.6c0,0.2-0.1,0.3-0.2,0.5c-0.1,0.2-0.2,0.2-0.4,0.2c-0.1,0-0.1,0-0.2,0c0,0-0.1-0.1-0.2-0.3
			c-0.1-0.1-0.2-0.2-0.3-0.2c-0.2,0-0.5,0.3-0.8,0.8c-0.3,0.6-0.6,1.4-1,2.5l-0.9,2.7H155.6z"/>
		<path class="st0" d="M159.2,63.8c0.2,0,0.5,0.1,0.6,0.2c0.2,0.2,0.3,0.3,0.3,0.6c0,0.2-0.1,0.4-0.3,0.6c-0.2,0.2-0.4,0.2-0.6,0.2
			c-0.3,0-0.5-0.1-0.7-0.2c-0.2-0.2-0.3-0.3-0.3-0.6c0-0.2,0.1-0.4,0.3-0.6C158.7,63.9,158.9,63.8,159.2,63.8z"/>
		<path class="st0" d="M181,55h-0.1c-0.3,0-0.5,0-0.7,0c-0.2,0-0.3,0.1-0.4,0.1c-0.1,0.1-0.2,0.2-0.2,0.3c-0.1,0.1-0.1,0.4-0.2,0.6
			l-2.1,7.6c0,0.1-0.1,0.3-0.1,0.4c0,0.5,0.3,0.7,0.9,0.7h0.5l-0.1,0.3h-4.7l0.1-0.3h0.4c0.3,0,0.5,0,0.6-0.1c0.1,0,0.3-0.1,0.4-0.2
			c0,0,0.1-0.1,0.1-0.1c0,0,0.1-0.1,0.1-0.2c0-0.1,0.1-0.2,0.1-0.3c0-0.1,0.1-0.3,0.2-0.6l2-7.5l-6.5,9.3h-0.5l-0.5-8.2l-2.6,6.5
			c-0.1,0.2-0.1,0.3-0.2,0.5c0,0.2-0.1,0.3-0.1,0.4c0,0.2,0.1,0.3,0.2,0.4c0.1,0.1,0.4,0.1,0.9,0.1h0.2l-0.1,0.3h-3.5l0.1-0.3h0.4
			c0.2,0,0.3,0,0.4,0c0.1,0,0.2-0.1,0.3-0.2c0.1-0.1,0.2-0.2,0.2-0.3c0.1-0.1,0.2-0.3,0.2-0.5l3.3-7.9c0-0.1,0.1-0.2,0.1-0.3
			c0-0.3-0.1-0.5-0.4-0.5c0,0-0.1,0-0.1,0c0,0-0.1,0-0.1,0c-0.1,0-0.1,0-0.2,0c-0.1,0-0.2,0-0.4,0h-0.4l0.1-0.3h3.1l0.5,8.4l5.8-8.4
			h3L181,55z"/>
		<path class="st0" d="M179.8,60.4c0.3-1.4,0.8-2.1,1.5-2.1c0.5,0,0.8,0.4,1.1,1.2c0.2,0.8,0.3,2,0.3,3.7c0,0.1,0,0.2,0,0.3
			c0,0.1,0,0.1,0,0.2c0,0.1,0,0.2,0,0.2c0,0.1,0,0.2,0,0.4c0.1-0.2,0.2-0.3,0.3-0.4c0.1-0.1,0.2-0.2,0.2-0.4
			c0.1-0.1,0.2-0.3,0.2-0.4c0.1-0.2,0.2-0.3,0.3-0.6c0.2-0.3,0.3-0.6,0.4-0.9c0.1-0.3,0.2-0.5,0.3-0.7c0.1-0.2,0.1-0.4,0.1-0.6
			c0-0.2,0-0.3,0-0.5c0-0.1,0-0.1,0-0.2c0,0,0-0.1,0-0.1c0,0-0.1-0.1-0.1-0.2c-0.1-0.1-0.1-0.2-0.2-0.3c-0.1-0.1-0.1-0.1-0.1-0.2
			c0-0.1-0.1-0.2-0.1-0.2c0-0.1,0.1-0.2,0.2-0.3c0.1-0.1,0.2-0.1,0.4-0.1c0.3,0,0.5,0.1,0.6,0.3c0.2,0.2,0.2,0.5,0.2,0.9
			c0,0.4-0.1,0.9-0.3,1.5c-0.2,0.6-0.5,1.3-1,2.2c-0.7,1.3-1.3,2.3-1.9,3.2c-0.6,0.8-1.1,1.5-1.7,1.9c-0.5,0.4-0.9,0.7-1.4,0.9
			c-0.5,0.2-0.9,0.3-1.3,0.3c-0.3,0-0.5-0.1-0.7-0.2c-0.2-0.1-0.3-0.2-0.3-0.4c0-0.1,0.1-0.2,0.2-0.3c0.1-0.1,0.3-0.2,0.5-0.2
			c0.1,0,0.1,0,0.1,0c0,0,0.1,0,0.1,0c0.1,0,0.1,0,0.2,0.1c0.1,0,0.2,0.1,0.3,0.1c0.1,0,0.2,0.1,0.3,0.1c0.1,0,0.3,0,0.4-0.1
			c0.2-0.1,0.3-0.1,0.5-0.3c0.2-0.1,0.3-0.2,0.5-0.4c0.2-0.1,0.3-0.3,0.5-0.5c0.2-0.2,0.4-0.5,0.5-0.8c0.1-0.3,0.3-0.6,0.4-0.9
			c0.1-0.3,0.2-0.7,0.2-1.1c0-0.4,0.1-0.8,0.1-1.3c0-0.3,0-0.6,0-1c0-0.4-0.1-0.7-0.1-1.1c0-0.4-0.1-0.7-0.1-1.1
			c0-0.3-0.1-0.7-0.2-1c-0.1-0.3-0.2-0.5-0.3-0.5c-0.1,0-0.3,0.1-0.4,0.4c-0.1,0.3-0.2,0.7-0.3,1.2L179.8,60.4z"/>
		<path class="st0" d="M199.6,58h-0.5c0-0.1,0-0.3,0.1-0.3c0-0.1,0-0.2,0-0.2c0-0.8-0.2-1.4-0.6-1.9c-0.4-0.5-1-0.7-1.7-0.7
			c-1.4,0-2.6,0.9-3.6,2.8c-0.4,0.7-0.7,1.4-0.9,2.2c-0.2,0.8-0.3,1.5-0.3,2.2c0,1,0.2,1.8,0.7,2.3c0.5,0.5,1.1,0.8,1.9,0.8
			c0.8,0,1.5-0.2,2.1-0.7c0.6-0.5,1.1-1.2,1.5-2.2h0.6l-1.3,3.3h-0.4l-0.2-0.6c-0.5,0.2-1,0.4-1.4,0.5c-0.4,0.1-0.8,0.1-1.2,0.1
			c-0.6,0-1.1-0.1-1.6-0.3c-0.5-0.2-0.9-0.5-1.3-0.9c-0.4-0.4-0.6-0.8-0.8-1.3c-0.2-0.5-0.3-1.1-0.3-1.7c0-0.9,0.2-1.7,0.6-2.5
			c0.4-0.8,0.9-1.6,1.5-2.2c0.6-0.7,1.3-1.2,2.1-1.6c0.8-0.4,1.6-0.6,2.4-0.6c0.5,0,1,0.1,1.5,0.3c0.5,0.2,0.9,0.4,1.1,0.7l0.7-0.7
			h0.4L199.6,58z"/>
		<path class="st0" d="M202,59.7c0.4-0.5,0.8-0.8,1.1-1.1c0.4-0.2,0.7-0.3,1.1-0.3c0.3,0,0.6,0.1,0.8,0.3c0.2,0.2,0.3,0.4,0.3,0.7
			c0,0.2-0.1,0.5-0.2,1l-1.1,3.7c-0.1,0.3-0.2,0.6-0.2,0.7c0,0.2,0.1,0.3,0.3,0.3c0.4,0,0.8-0.5,1.4-1.4l0.3,0.2
			c-0.7,1.2-1.4,1.7-2.1,1.7c-0.3,0-0.5-0.1-0.7-0.2c-0.2-0.2-0.3-0.4-0.3-0.6c0-0.1,0-0.3,0.1-0.5c0.1-0.2,0.1-0.5,0.2-0.8l1-3.4
			c0-0.1,0-0.2,0.1-0.3c0-0.1,0-0.2,0-0.3c0-0.1,0-0.2-0.1-0.3c-0.1-0.1-0.2-0.1-0.3-0.1c-0.2,0-0.4,0.1-0.6,0.2
			c-0.2,0.1-0.5,0.3-0.7,0.6c-0.3,0.3-0.5,0.6-0.7,1c-0.2,0.4-0.4,0.8-0.5,1.4l-1,3.2h-1.2l3-9.8c0-0.1,0.1-0.2,0.1-0.4
			c0-0.2-0.1-0.3-0.2-0.3c0,0,0,0-0.1,0c0,0-0.1,0-0.3,0h-0.5l0.1-0.3c0.3,0,0.5,0,0.8,0c0.2,0,0.4,0,0.6,0c0.2,0,0.3,0,0.5-0.1
			c0.2,0,0.3-0.1,0.5-0.1l0.1,0.1L202,59.7z"/>
		<path class="st0" d="M209.8,58.3c0.5,0,0.9,0.2,1.2,0.6c0.3,0.4,0.5,0.9,0.5,1.6c0,0.6-0.1,1.2-0.3,1.8c-0.2,0.6-0.5,1.1-0.8,1.6
			c-0.3,0.5-0.7,0.8-1.1,1.1c-0.4,0.3-0.8,0.4-1.3,0.4c-0.5,0-0.9-0.2-1.2-0.6c-0.3-0.4-0.5-1-0.5-1.7c0-0.6,0.1-1.2,0.3-1.8
			c0.2-0.6,0.4-1.1,0.8-1.5c0.3-0.4,0.7-0.8,1.1-1.1C208.9,58.4,209.4,58.3,209.8,58.3z M209.8,58.8c-0.3,0-0.6,0.2-0.9,0.5
			c-0.3,0.3-0.5,0.8-0.8,1.5c-0.2,0.6-0.4,1.2-0.5,1.7c-0.1,0.5-0.2,1-0.2,1.4c0,0.7,0.2,1.1,0.7,1.1c0.3,0,0.6-0.2,0.9-0.5
			c0.3-0.3,0.6-0.9,0.9-1.6c0.1-0.2,0.2-0.5,0.3-0.8c0.1-0.3,0.2-0.6,0.2-0.9c0.1-0.3,0.1-0.6,0.1-0.8c0-0.3,0.1-0.5,0.1-0.7
			c0-0.3-0.1-0.5-0.2-0.7C210.2,58.8,210,58.8,209.8,58.8z"/>
		<path class="st0" d="M215.3,63.7c-0.3,0.6-0.6,1-0.9,1.3c-0.3,0.3-0.7,0.5-1.1,0.5c-0.3,0-0.5-0.1-0.7-0.2
			c-0.2-0.2-0.3-0.3-0.3-0.5c0-0.1,0-0.2,0-0.3c0-0.1,0.1-0.3,0.1-0.5l1.3-4c0-0.1,0.1-0.3,0.1-0.4c0-0.1,0-0.2,0-0.2
			c0-0.2-0.1-0.3-0.2-0.3c-0.2,0-0.3,0.1-0.5,0.3c-0.1,0.2-0.3,0.5-0.5,1.1l-0.4-0.1c0.3-0.7,0.6-1.2,0.9-1.5c0.3-0.3,0.7-0.4,1-0.4
			c0.3,0,0.5,0.1,0.6,0.2c0.2,0.1,0.3,0.3,0.3,0.5c0,0.2-0.1,0.4-0.2,0.8l-1.3,4.2c0,0.1-0.1,0.2-0.1,0.3c0,0.1,0,0.1,0,0.2
			c0,0.2,0.1,0.4,0.3,0.4c0.2,0,0.3-0.1,0.5-0.3c0.2-0.2,0.4-0.5,0.6-1.1L215.3,63.7z M215.4,55.1c0.2,0,0.4,0.1,0.6,0.2
			c0.2,0.2,0.2,0.3,0.2,0.5c0,0.2-0.1,0.4-0.3,0.5c-0.2,0.2-0.4,0.2-0.6,0.2c-0.2,0-0.4-0.1-0.6-0.2c-0.2-0.2-0.2-0.3-0.2-0.5
			c0-0.2,0.1-0.4,0.3-0.5C215,55.2,215.1,55.1,215.4,55.1z"/>
		<path class="st0" d="M219.9,63.2c-0.3,0.7-0.7,1.2-1.1,1.6c-0.4,0.4-0.9,0.6-1.3,0.6c-0.5,0-0.9-0.2-1.2-0.5
			c-0.3-0.4-0.4-0.8-0.4-1.4c0-0.6,0.1-1.2,0.4-1.8c0.2-0.6,0.5-1.2,0.9-1.7c0.4-0.5,0.8-0.9,1.2-1.2c0.5-0.3,0.9-0.5,1.3-0.5
			c0.3,0,0.5,0.1,0.7,0.3c0.2,0.2,0.3,0.4,0.3,0.6c0,0.2-0.1,0.3-0.2,0.5c-0.1,0.1-0.3,0.2-0.4,0.2c-0.1,0-0.2,0-0.3-0.1
			c-0.1-0.1-0.1-0.2-0.1-0.3c0,0,0-0.1,0-0.2c0-0.1,0-0.1,0-0.2c0-0.2-0.1-0.3-0.3-0.3c-0.2,0-0.5,0.1-0.7,0.4
			c-0.2,0.3-0.5,0.7-0.8,1.4c-0.3,0.7-0.5,1.3-0.7,1.9c-0.2,0.6-0.2,1.1-0.2,1.6c0,0.6,0.2,0.9,0.7,0.9c0.3,0,0.7-0.2,1-0.5
			c0.3-0.3,0.6-0.8,0.8-1.4L219.9,63.2z"/>
		<path class="st0" d="M224.7,63.3c-0.7,1.4-1.6,2.1-2.5,2.1c-0.4,0-0.8-0.2-1-0.5c-0.3-0.3-0.4-0.8-0.4-1.3c0-0.6,0.1-1.2,0.4-1.8
			c0.2-0.6,0.5-1.2,0.9-1.7c0.4-0.5,0.8-0.9,1.2-1.3c0.4-0.3,0.9-0.5,1.3-0.5c0.3,0,0.5,0.1,0.7,0.3c0.2,0.2,0.3,0.4,0.3,0.7
			c0,0.3-0.1,0.5-0.2,0.8c-0.2,0.3-0.4,0.6-0.7,0.9c-0.3,0.3-0.7,0.6-1.1,0.8c-0.4,0.3-0.9,0.5-1.4,0.8l0,0.1l0,0
			c-0.1,0.2-0.1,0.4-0.1,0.6c0,0.2-0.1,0.4-0.1,0.6c0,0.7,0.2,1.1,0.7,1.1c0.6,0,1.2-0.6,1.8-1.9L224.7,63.3z M222.2,62.1
			c0.2-0.1,0.4-0.2,0.5-0.3c0.1-0.1,0.2-0.1,0.3-0.2c0.1-0.1,0.2-0.1,0.2-0.2c0.1-0.1,0.2-0.1,0.3-0.2c0.4-0.3,0.7-0.6,0.9-1
			c0.2-0.3,0.3-0.7,0.3-1c0-0.4-0.1-0.5-0.4-0.5c-0.3,0-0.6,0.2-0.9,0.6c-0.3,0.4-0.6,1-0.9,1.7c0,0.1-0.1,0.2-0.1,0.2
			c0,0.1,0,0.1-0.1,0.2c0,0.1,0,0.1-0.1,0.2C222.3,61.8,222.2,61.9,222.2,62.1z"/>
		<path class="st0" d="M226.4,63.8c0.2,0,0.4,0.1,0.6,0.2c0.2,0.2,0.2,0.3,0.2,0.6c0,0.2-0.1,0.4-0.2,0.6c-0.2,0.2-0.4,0.2-0.6,0.2
			c-0.2,0-0.4-0.1-0.6-0.2c-0.2-0.2-0.3-0.3-0.3-0.6c0-0.2,0.1-0.4,0.3-0.6C226,63.9,226.2,63.8,226.4,63.8z"/>
	</g>
	<g>
		<path class="st0" d="M19.3,35.6h-5.1l-6.4-8.4c-0.5,0-0.9,0-1.2,0c-0.1,0-0.3,0-0.4,0c-0.1,0-0.3,0-0.4,0v5.2
			c0,1.1,0.1,1.8,0.4,2.1c0.4,0.4,0.9,0.6,1.6,0.6h0.7v0.5H0.4v-0.5h0.7c0.8,0,1.4-0.2,1.7-0.7c0.2-0.3,0.3-0.9,0.3-1.9V20.8
			c0-1.1-0.1-1.8-0.4-2.1c-0.4-0.4-0.9-0.6-1.6-0.6H0.4v-0.5h6.9c2,0,3.5,0.1,4.5,0.4c1,0.3,1.8,0.8,2.4,1.5c0.7,0.7,1,1.6,1,2.7
			c0,1.1-0.4,2.1-1.1,2.9c-0.8,0.8-1.9,1.4-3.5,1.7l3.9,5.1c0.9,1.2,1.7,2,2.3,2.4c0.6,0.4,1.5,0.6,2.5,0.7V35.6z M5.8,26.4
			c0.2,0,0.3,0,0.5,0c0.1,0,0.2,0,0.3,0c1.8,0,3.2-0.4,4.1-1.1c0.9-0.7,1.4-1.7,1.4-2.8c0-1.1-0.4-2-1.1-2.7c-0.7-0.7-1.7-1.1-3-1.1
			c-0.5,0-1.3,0.1-2.2,0.3V26.4z"/>
		<path class="st0" d="M21.2,29c0,1.6,0.4,2.8,1.3,3.7c0.8,0.9,1.8,1.3,3,1.3c0.8,0,1.4-0.2,2-0.6c0.6-0.4,1-1,1.4-2l0.4,0.2
			c-0.2,1.1-0.7,2-1.5,2.9c-0.9,0.9-1.9,1.3-3.2,1.3c-1.4,0-2.6-0.5-3.6-1.5c-1-1-1.5-2.3-1.5-4c0-1.8,0.5-3.2,1.5-4.2
			c1-1,2.3-1.5,3.8-1.5c1.3,0,2.4,0.4,3.2,1.2c0.8,0.8,1.3,1.8,1.3,3.1H21.2z M21.2,28.4h5.4c0-0.7-0.1-1.2-0.3-1.4
			c-0.2-0.4-0.5-0.8-0.9-1c-0.4-0.2-0.9-0.4-1.3-0.4c-0.7,0-1.3,0.2-1.9,0.7C21.7,26.8,21.3,27.5,21.2,28.4z"/>
	</g>
	<g>
		<g>
			<path class="st0" d="M57.3,18.7c2.1-1.1,4.4-1.9,6.7-2.7c2.3-0.7,4.6-1.3,7-1.9c4.7-1,9.5-1.5,14.4-1.5c4.8,0,9.7,0.4,14.4,1.5
				l1.8,0.4c0.6,0.1,1.2,0.3,1.8,0.4l3.5,1c1.2,0.3,2.3,0.8,3.4,1.2c1.1,0.4,2.2,0.9,3.3,1.4c-4.6-1.4-9.1-2.9-13.9-3.6l-1.8-0.3
				c-0.6-0.1-1.2-0.2-1.8-0.3L92.4,14c-1.2-0.1-2.4-0.1-3.6-0.2l-1.8-0.1l-1.8,0c-1.2,0-2.4,0-3.6,0.1L78.2,14l-3.5,0.4
				c-1.2,0.2-2.4,0.4-3.5,0.5c-2.4,0.4-4.7,0.9-7,1.5C61.8,17.1,59.5,17.9,57.3,18.7z"/>
		</g>
		<g>
			<path class="st1" d="M76.8,1.2L74,1.9l3.1,9.3c0.6-0.1,1.3-0.1,2-0.2L76.8,1.2z"/>
			<path class="st1" d="M91.2,2.4l-2.7-0.6l-0.7,9c0.7,0,1.3,0.1,2,0.1L91.2,2.4z"/>
			<path class="st1" d="M72.5,3.6l-2.3,1.2l3.3,6.8c0.7-0.1,1.4-0.2,2.2-0.3L72.5,3.6z"/>
			<path class="st1" d="M81.8,1.8l-2.5,0.5l1,8.6c0.8,0,1.5-0.1,2.3-0.1L81.8,1.8z"/>
			<path class="st1" d="M59.1,8.5l-1.9,2.3l5.3,3.7c0.7-0.3,1.5-0.6,2.3-0.8L59.1,8.5z"/>
			<path class="st1" d="M67.3,3.5l-2.2,1.2l4.6,7.6c0.8-0.2,1.6-0.3,2.4-0.5L67.3,3.5z"/>
			<path class="st1" d="M63.9,7.6L62.2,9l3.7,4.3c0.7-0.2,1.5-0.4,2.2-0.6L63.9,7.6z"/>
			<path class="st1" d="M86.3,10.8l0.2-10.5h-2.8l0.4,10.5c0.3,0,0.6,0,1,0C85.5,10.7,85.9,10.8,86.3,10.8z"/>
			<path class="st1" d="M113.2,10.7l-2-2.2l-5.6,5.2c0.8,0.3,1.5,0.5,2.3,0.8L113.2,10.7z"/>
			<path class="st1" d="M108.1,9l-1.8-1.5l-4.1,5.3c0.8,0.2,1.5,0.4,2.2,0.6L108.1,9z"/>
			<path class="st1" d="M96.2,2.1l-2.7-0.9L91.2,11c0.7,0.1,1.4,0.1,2.1,0.2L96.2,2.1z"/>
			<path class="st1" d="M100,4.8l-2-1.2l-3.6,7.7c0.8,0.1,1.5,0.2,2.3,0.3L100,4.8z"/>
			<path class="st1" d="M105.3,4.8L103,3.6l-4.8,8.3c0.8,0.1,1.6,0.3,2.3,0.5L105.3,4.8z"/>
		</g>
	</g>
	<g>
		<path class="st1" d="M43.4,27.8h0.9c1.8,0,1.8,2,1.8,2v0.6v3.1c-8.8,3.7-12-5-10.9-9.9c1-4.9,5.6-6.4,9.2-5.3
			c3.6,1.1,4.1,4.6,4.1,4.6h1l-0.3-6.5H48l-0.5,1.2c-7.8-2.7-13.9,0.5-15.7,5c-1.8,4.5-0.1,11.2,6.6,12.7c6.7,1.5,11-1.4,11-1.4
			v-4.4c0-1.9,1.4-1.8,1.4-1.8h0.9v-1h-8.2V27.8z"/>
		<path class="st1" d="M63.1,32.6c-0.9-0.5-1.7,2.2-5,1c-3.2-1.2-2.8-4.8-2.8-4.8H63c0,0,0.3-0.6,0.2-1.5c-0.1-0.9-1.3-2.7-4.5-2.9
			c-3.1-0.1-5.7,2.2-5.9,6.2c-0.2,3.9,4,5.6,6.9,5.1C62.5,35.1,64,33.1,63.1,32.6z M58.9,25.6c1.7,0.2,1.7,1.8,1.7,1.8h-4.9
			C56.1,26.6,57.2,25.5,58.9,25.6z"/>
		<path class="st1" d="M90.1,32.6c-0.9-0.5-1.7,2.2-5,1c-3.2-1.2-2.8-4.8-2.8-4.8H90c0,0,0.4-0.4,0.3-1.3c-0.1-0.9-1.3-2.9-4.5-3.1
			c-3.1-0.1-5.7,2.2-5.9,6.2c-0.2,3.9,4,5.6,6.9,5.1C89.5,35.1,91,33.1,90.1,32.6z M85.9,25.6c1.7,0.2,1.7,1.8,1.7,1.8h-4.9
			C83.1,26.6,84.2,25.5,85.9,25.6z"/>
		<path class="st1" d="M78.2,34.1h-0.7c-0.8,0-0.7-0.3-0.7-0.3v-0.6V28c0.1-1.8-1.4-3.7-3.9-3.6c-2.6,0.1-4,1.5-4,1.5V24
			c0,0-2.2,0.9-2.9,1.1c-0.7,0.2-1.1,0.7-0.7,1c0.3,0.3,1.1,0.7,1.1,0.7v6.7c0.1,0.6-0.6,0.6-0.6,0.6h-0.7c-0.5-0.1-0.5,0.5-0.5,0.5
			v0.3c0,0.4,0.4,0.4,0.4,0.4h5.4c0.5,0,0.5-0.4,0.5-0.4v-0.4c0-0.5-0.4-0.6-0.4-0.6h-0.7c-0.6,0.1-0.5-0.6-0.5-0.6v-5.8
			c0-0.5,1.2-1.9,3.3-1.6c2.1,0.3,2,2,2,2v5.1c0.1,0.8-0.5,1-0.5,1h-0.9c-0.5,0-0.6,0.2-0.6,0.7c-0.1,0.5,0.3,0.5,0.3,0.5h5.8
			c0.3,0,0.3-0.2,0.3-0.2v-0.6C78.6,34.2,78.2,34.1,78.2,34.1z"/>
		<path class="st1" d="M113.9,29.1c-1.6-0.9-3.1-1.5-2.4-2.8c0.7-1.3,2.7-0.6,3.4,0.3c0.6,1,0.9,1.2,1.4,0.9c0,0,0.1-1.5-0.3-2.4
			c-0.4-0.9-4.6-1.2-6.2,0.3c-1.5,1.6-0.8,3.8,1.2,4.9c2,1.1,3.3,1.9,2.9,3.3c-0.5,1.4-2.5,1.1-3.5-0.1c-1-1.2-1.1-1.9-1.1-1.9
			l-1,0.1v2.2c0,0,0.1,1.1,2.3,1.8c2.2,0.7,5.3-0.8,5.8-2.6C116.9,31.2,115.4,30,113.9,29.1z"/>
		<path class="st1" d="M97,29.1c-1.6-0.9-3.1-1.5-2.4-2.8c0.7-1.3,2.7-0.6,3.4,0.3c0.6,1,0.9,1.2,1.4,0.9c0,0,0.1-1.5-0.3-2.4
			c-0.4-0.9-4.6-1.2-6.2,0.3c-1.5,1.6-0.8,3.8,1.2,4.9c2,1.1,3.3,1.9,2.9,3.3c-0.5,1.4-2.5,1.1-3.5-0.1c-1-1.2-1.1-1.9-1.1-1.9
			l-1,0.1v2.2c0,0,0.1,1.1,2.3,1.8c2.2,0.7,5.3-0.8,5.8-2.6C100.1,31.2,98.6,30,97,29.1z"/>
		<path class="st1" d="M106.8,34.1h-0.9c-0.5,0-0.6-0.9-0.6-0.9V24l-3.6,1.5v0.7l1,0.6v6.3c0,0,0,0,0,0c0.1,1-0.4,0.9-0.4,0.9h-0.7
			c-0.7,0-0.7,0.4-0.7,0.4v0.4c-0.1,0.6,0.3,0.6,0.3,0.6h5.7c0.5,0,0.5-0.5,0.5-0.5v-0.5C107.3,34.1,106.8,34.1,106.8,34.1z"/>
		<path class="st1" d="M102.7,33.1C102.7,33.1,102.7,33.1,102.7,33.1C102.6,32.3,102.7,33,102.7,33.1z"/>
		<path class="st1" d="M103.9,22.1c0.9,0,1.7-0.8,1.7-1.7c0-0.9-0.8-1.7-1.7-1.7c-0.9,0-1.7,0.8-1.7,1.7
			C102.2,21.3,103,22.1,103.9,22.1z"/>
	</g>
</g>
</svg>
